<?xml version="1.0" encoding="UTF-8"?>
<svg width="52px" height="58px" viewBox="0 0 52 58" version="1.1" xmlns="http://www.w3.org/2000/svg" xmlns:xlink="http://www.w3.org/1999/xlink">
    <!-- Generator: Sketch 48.1 (47250) - http://www.bohemiancoding.com/sketch -->
    <title>Headway Logo</title>
    <desc>Created with Sketch.</desc>
    <defs>
        <rect id="path-1" x="0.00747218366" y="0.0304762015" width="29.9765384" height="29.9016502" rx="14.9508251"></rect>
        <rect id="path-3" x="0.00743897395" y="0.0304762015" width="29.8433093" height="29.9016502" rx="14.9216546"></rect>
    </defs>
    <g id="BB-Landing-Page" stroke="none" stroke-width="1" fill="none" fill-rule="evenodd" transform="translate(-832.000000, -6726.000000)">
        <g id="Footer" transform="translate(0.000000, 6681.000000)">
            <g id="Headway-Logo" transform="translate(832.000000, 45.000000)">
                <g id="icon/brand/light_alt" transform="translate(6.000000, 0.000000)">
                    <g id="default">
                        <path d="M0,20 C0,8.95430501 8.88971254,0 19.8608409,0 L20.1391592,0 C31.1079987,0 40,8.95498819 40,20 C40,31.045695 31.1102877,40 20.1391592,40 L19.8608409,40 C8.89200135,40 0,31.0450117 0,20 L0,20 Z M2.77777778,20 C2.77777778,10.4884293 10.432808,2.77777778 19.8801686,2.77777778 L20.1198315,2.77777778 C29.5652211,2.77777778 37.2222224,10.486338 37.2222224,20 C37.2222224,29.5115708 29.5671921,37.2222222 20.1198315,37.2222222 L19.8801686,37.2222222 C10.434779,37.2222222 2.77777778,29.513662 2.77777778,20 L2.77777778,20 Z" id="circle" fill="#FFFFFF"></path>
                        <g id="circle-mask" transform="translate(4.761905, 4.761905)">
                            <rect id="path-1" x="0.00747277086" y="0.0305383159" width="29.9788941" height="29.9625935" rx="14.9812968"></rect>
                        </g>
                        <g id="h-Clipped" transform="translate(4.761905, 4.761905)">
                            <mask id="mask-2" fill="white">
                                <use xlink:href="#path-1"></use>
                            </mask>
                            <g id="path-1"></g>
                            <path d="M21.518414,21.2328898 L21.518414,8.4749237 L18.6194483,8.4749237 L18.6194483,13.5252977 L18.6194483,13.5252977 L11.3720343,13.5252977 L11.3720343,13.5252977 L11.3720343,8.4749237 L8.47306863,8.4749237 L8.47306863,19.1914177 C9.36949912,19.1782057 10.3340781,19.2146939 11.3720309,19.3130446 L11.3720343,16.4373049 L18.6194483,16.4373049 L18.6194483,20.7137372 C19.6610637,20.9427899 20.625503,21.1131367 21.518414,21.2328898 L21.518414,21.2328898 Z" id="h" fill="#FFFFFF" mask="url(#mask-2)"></path>
                        </g>
                        <g id="wave" transform="translate(4.761905, 4.761905)">
                            <g id="Clipped" transform="translate(0.038244, 0.000000)">
                                <mask id="mask-4" fill="white">
                                    <use xlink:href="#path-3"></use>
                                </mask>
                                <g id="path-1"></g>
                                <g id="path-3-link" mask="url(#mask-4)" fill="#31AAB7">
                                    <g transform="translate(-2.715976, 19.175360)" id="path-3">
                                        <path d="M0.623330041,5.10867736 C1.94974762,5.10868296 6.14986872,-0.8716526 19.8556848,2.67224661 C33.5615009,6.21614589 34.8878701,0.0143221493 34.8878701,0.0143221493 L34.8878701,13.7469319 L0.623330064,13.7469319 C0.623330064,13.7469319 -0.7030875,5.10867177 0.623330041,5.10867736 L0.623330041,5.10867736 Z"></path>
                                    </g>
                                </g>
                            </g>
                        </g>
                    </g>
                </g>
                <path d="M5.85488959,55.5017381 L5.85488959,51.792584 L1.47634069,51.792584 L1.47634069,55.5017381 L0,55.5017381 L0,47 L1.47634069,47 L1.47634069,50.4797219 L5.85488959,50.4797219 L5.85488959,47 L7.33123028,47 L7.33123028,55.5017381 L5.85488959,55.5017381 Z M8.70662461,52.4171495 C8.70662461,50.6326767 9.99369085,49.1923523 11.7981073,49.1923523 C13.6277603,49.1923523 14.8012618,50.6071842 14.8012618,52.5446118 L14.8012618,52.8632677 L10.0946372,52.8632677 C10.1955836,53.7937428 10.8895899,54.5585168 12.0378549,54.5585168 C12.6309148,54.5585168 13.3375394,54.3163384 13.7665615,53.8829664 L14.3722397,54.7624565 C13.7665615,55.3487833 12.8706625,55.6546929 11.8990536,55.6546929 C10.0694006,55.6546929 8.70662461,54.3673233 8.70662461,52.4171495 Z M11.7981073,50.2885284 C10.6624606,50.2885284 10.1451104,51.1680185 10.0820189,51.9200463 L13.5141956,51.9200463 C13.488959,51.193511 12.9968454,50.2885284 11.7981073,50.2885284 Z M19.8359621,55.5017381 L19.8359621,54.838934 C19.3817035,55.3615295 18.6750789,55.6546929 17.8675079,55.6546929 C16.8706625,55.6546929 15.7476341,54.9791425 15.7476341,53.6152955 C15.7476341,52.2004635 16.8706625,51.6141367 17.8675079,51.6141367 C18.6876972,51.6141367 19.3943218,51.8818076 19.8359621,52.4044032 L19.8359621,51.4866744 C19.8359621,50.7728853 19.2555205,50.3395133 18.4100946,50.3395133 C17.7287066,50.3395133 17.1356467,50.594438 16.6056782,51.1170336 L16.0630915,50.1865585 C16.7697161,49.5110081 17.6529968,49.1923523 18.6246057,49.1923523 C19.9747634,49.1923523 21.1608833,49.7659328 21.1608833,51.4229432 L21.1608833,55.5017381 L19.8359621,55.5017381 Z M19.8359621,54.0996524 L19.8359621,53.1691773 C19.533123,52.7485516 18.9652997,52.5318656 18.384858,52.5318656 C17.6403785,52.5318656 17.0851735,52.9652375 17.0851735,53.6407879 C17.0851735,54.3035921 17.6403785,54.7369641 18.384858,54.7369641 C18.9652997,54.7369641 19.533123,54.5202781 19.8359621,54.0996524 Z M27.1671924,55.5017381 L27.1671924,54.6604867 C26.7003155,55.2723059 25.9936909,55.6546929 25.2113565,55.6546929 C23.6466877,55.6546929 22.4984227,54.4565469 22.4984227,52.4298957 C22.4984227,50.4414832 23.6340694,49.1923523 25.2113565,49.1923523 C25.9684543,49.1923523 26.6750789,49.5492468 27.1671924,50.1993048 L27.1671924,47 L28.4921136,47 L28.4921136,55.5017381 L27.1671924,55.5017381 Z M27.1671924,53.6535342 L27.1671924,51.2062572 C26.8643533,50.7473928 26.2208202,50.377752 25.5899054,50.377752 C24.5425868,50.377752 23.873817,51.2317497 23.873817,52.4298957 C23.873817,53.6152955 24.5425868,54.4692932 25.5899054,54.4692932 C26.2208202,54.4692932 26.8643533,54.1123986 27.1671924,53.6535342 Z M35.5205047,55.5017381 L34.1072555,50.9895713 L32.6940063,55.5017381 L31.3059937,55.5017381 L29.4132492,49.3453071 L30.7886435,49.3453071 L32.0757098,53.8192352 L33.5268139,49.3453071 L34.6876972,49.3453071 L36.1388013,53.8192352 L37.4258675,49.3453071 L38.8012618,49.3453071 L36.9085174,55.5017381 L35.5205047,55.5017381 Z M43.444795,55.5017381 L43.444795,54.838934 C42.9905363,55.3615295 42.2839117,55.6546929 41.4763407,55.6546929 C40.4794953,55.6546929 39.3564669,54.9791425 39.3564669,53.6152955 C39.3564669,52.2004635 40.4794953,51.6141367 41.4763407,51.6141367 C42.29653,51.6141367 43.0031546,51.8818076 43.444795,52.4044032 L43.444795,51.4866744 C43.444795,50.7728853 42.8643533,50.3395133 42.0189274,50.3395133 C41.3375394,50.3395133 40.7444795,50.594438 40.214511,51.1170336 L39.6719243,50.1865585 C40.3785489,49.5110081 41.2618297,49.1923523 42.2334385,49.1923523 C43.5835962,49.1923523 44.7697161,49.7659328 44.7697161,51.4229432 L44.7697161,55.5017381 L43.444795,55.5017381 Z M43.444795,54.0996524 L43.444795,53.1691773 C43.1419558,52.7485516 42.5741325,52.5318656 41.9936909,52.5318656 C41.2492114,52.5318656 40.6940063,52.9652375 40.6940063,53.6407879 C40.6940063,54.3035921 41.2492114,54.7369641 41.9936909,54.7369641 C42.5741325,54.7369641 43.1419558,54.5202781 43.444795,54.0996524 Z M46.4227129,56.7126304 C46.5615142,56.7763615 46.7760252,56.8146002 46.9274448,56.8146002 C47.3438486,56.8146002 47.6214511,56.6871379 47.7981073,56.2792584 L48.1009464,55.5782155 L45.6025237,49.3453071 L47.0157729,49.3453071 L48.7949527,53.9594438 L50.5741325,49.3453071 L52,49.3453071 L49.0599369,56.6106605 C48.6435331,57.6558517 47.9116719,57.9872538 46.9652997,58 C46.7760252,58 46.4100946,57.9617613 46.2208202,57.9107764 L46.4227129,56.7126304 Z" id="Headway" fill="#FFFFFF"></path>
            </g>
        </g>
    </g>
</svg>