<?xml version="1.0" encoding="UTF-8"?>
<svg width="273px" height="21px" viewBox="0 0 273 21" version="1.1" xmlns="http://www.w3.org/2000/svg" xmlns:xlink="http://www.w3.org/1999/xlink">
    <!-- Generator: Sketch 48.1 (47250) - http://www.bohemiancoding.com/sketch -->
    <title>Fill 1 Copy 2</title>
    <desc>Created with Sketch.</desc>
    <defs></defs>
    <g id="BB-Landing-Page" stroke="none" stroke-width="1" fill="none" fill-rule="evenodd" transform="translate(-568.000000, -5219.000000)">
        <g id="Order-a-Shirt" transform="translate(0.000000, 5024.000000)" fill="#F3B764">
            <path d="M738.227926,201.063156 C738.295865,200.111358 737.582501,200.820144 738.227926,201.063156 Z M740.748481,207.759494 L741.088179,207.759494 L741.088179,207.259969 L740.748481,207.259969 L740.748481,207.759494 Z M754.064622,201.063156 C754.451877,201.204913 754.451877,200.212613 754.227677,200.725639 C754.241265,200.961901 753.738513,200.921399 754.064622,201.063156 Z M789.10102,201.893448 C789.019492,202.143211 788.849644,202.32547 788.768116,202.568482 C789.433923,202.777743 789.671712,201.981203 789.10102,201.893448 Z M797.022765,206.254168 C797.471166,206.308171 797.573075,206.017906 797.532311,205.579134 C797.08391,205.525132 797.090704,205.936902 797.022765,206.254168 Z M798.707664,209.433579 C798.836749,209.561835 799.624848,209.379576 799.040568,209.096062 C799.128889,209.237819 798.639725,209.359325 798.707664,209.433579 Z M799.040568,206.760444 L799.726757,206.760444 L799.726757,206.416177 L799.040568,206.416177 L799.040568,206.760444 Z M801.74456,207.097961 C801.74456,207.259969 801.608681,207.293721 801.574711,207.421977 C801.832881,207.401726 802.152197,207.448979 802.070669,207.097961 L801.74456,207.097961 Z M811.011507,202.062207 L811.684108,202.062207 L811.684108,201.400673 C811.12021,201.285917 811.065859,201.684188 811.011507,202.062207 Z M820.115399,201.562681 C820.427921,201.555931 820.461891,201.697688 820.27166,201.893448 C820.692885,201.920449 821.086934,201.9272 821.283959,201.73819 L821.283959,201.063156 L820.951055,201.063156 C820.489066,200.9349 821.066552,201.852946 820.611358,201.73819 C820.665709,201.52893 820.128987,201.157661 820.115399,201.562681 Z M822.799009,207.259969 C822.982446,207.570485 823.159089,207.199216 823.47161,207.097961 C823.777338,206.989956 824.585818,207.097961 824.483909,206.584935 C823.953981,206.267669 823.152295,206.861699 822.799009,207.259969 Z M824.144211,205.423876 C824.354824,205.268619 824.877958,204.593585 824.483909,204.411325 C824.286884,204.89735 823.777338,204.350572 823.47161,204.411325 C823.240616,204.458578 823.193058,204.674589 822.975652,204.748842 C822.744658,204.532831 822.343815,204.526081 822.296257,204.917601 C822.866949,204.958103 823.104737,205.336122 823.811308,205.248368 C823.600695,205.788395 824.361618,205.383374 824.144211,205.916651 C824.456733,205.88965 824.708109,205.801896 824.823606,205.579134 C824.57223,205.552133 824.198563,205.639887 824.144211,205.423876 Z M826.678354,207.097961 L826.678354,207.421977 C826.691942,207.529983 826.698736,207.624488 826.841409,207.597486 C826.848203,207.374725 827.140343,207.435478 827.181107,207.259969 C826.950112,207.26672 826.814233,207.178965 826.678354,207.097961 Z M831.223507,206.416177 C831.440913,206.962954 830.679991,206.544433 830.890603,207.097961 C831.420531,207.158714 831.855344,206.557934 831.223507,206.416177 Z M837.120655,202.062207 C837.426383,202.035205 837.969899,202.237716 837.793256,201.73819 C837.419589,201.684188 837.168212,201.771942 837.120655,202.062207 Z M812.526558,202.062207 L812.526558,201.73819 C812.112127,201.474927 812.023805,202.305219 812.356709,202.230965 C812.363503,202.13646 812.377091,202.041956 812.526558,202.062207 Z M821.616862,207.597486 C821.11411,207.367975 820.767618,206.88195 821.11411,206.254168 C820.577388,206.044908 820.998613,206.794196 820.441509,206.584935 C820.128987,206.456679 820.536624,206.213666 820.441509,206.08541 C820.353187,205.963904 819.999902,205.943653 819.768908,205.747893 C819.619441,205.626387 819.578677,205.383374 819.42921,205.248368 C819.137071,204.978354 818.647906,204.70159 818.4305,204.411325 C818.369354,204.337072 818.471263,204.154812 818.4305,204.073808 C818.199505,203.736291 817.635608,203.493279 817.744311,203.074758 C817.995687,203.169263 818.165536,203.331271 818.253857,203.574283 C818.627524,203.547282 818.029657,203.155762 818.253857,202.737241 C818.573173,202.662987 818.681876,202.372722 819.096307,202.399724 C818.926458,201.93395 818.382942,202.446976 818.084008,202.399724 C817.683165,202.453726 817.771487,202.987003 817.241559,202.899249 C816.698043,202.224215 816.079793,201.609934 815.38681,201.063156 C814.972379,201.373672 814.279397,201.414174 814.041608,201.893448 C813.104043,202.035205 812.078157,202.062207 811.853957,202.899249 C811.15418,202.588733 811.106622,203.344771 810.841658,203.574283 C810.780513,203.635036 810.563106,203.52028 810.501961,203.574283 C810.101118,203.878048 809.679893,204.580084 808.98691,204.748842 C808.878207,205.194365 808.50454,205.383374 808.307515,205.747893 C808.062933,205.835647 807.88629,205.997655 807.641708,206.08541 C807.295217,206.105661 807.295217,206.578185 807.132162,206.760444 C807.084604,206.814447 806.846816,206.699691 806.799258,206.760444 C806.724525,206.841448 806.710937,207.178965 806.622616,207.259969 C806.520706,207.354474 806.242154,207.361224 806.119863,207.421977 C806.031542,207.46923 806.140245,207.583986 805.950015,207.597486 C805.800548,207.604237 805.026037,208.340024 804.774661,208.589786 C804.163206,209.197317 803.531369,209.8521 802.913119,210.608138 C802.627773,210.972657 802.186167,211.23592 802.254106,211.775947 C801.629063,211.661191 801.601887,212.140466 801.071959,212.113464 C800.691498,212.255222 800.698292,211.762447 800.562413,211.607189 C800.399358,211.43168 800.195539,211.262921 800.05966,211.107664 C799.624848,210.608138 799.421029,210.034359 798.54461,209.933104 C798.54461,209.602338 798.082621,209.723844 798.204912,209.26482 C797.858421,209.366076 797.838039,209.021808 797.70216,208.927303 C797.47796,208.799047 797.08391,209.042059 797.192614,208.589786 C797.674984,208.110512 797.722542,208.927303 798.381555,208.772046 C798.762016,208.812548 798.558197,208.279271 798.884307,208.25902 C798.938659,208.151014 798.456288,208.009257 798.381555,208.097011 C798.225294,208.238769 798.211706,208.117262 797.872009,208.097011 C797.763305,208.090261 797.267347,208.164515 797.192614,208.097011 C797.015971,207.914752 797.049941,208.130763 796.683067,208.097011 C796.370546,208.06326 796.037642,207.833748 795.677563,207.928253 C795.50092,207.772995 795.623211,207.313972 795.174811,207.421977 C795.134047,207.374725 795.419393,207.151964 795.331071,207.097961 C795.324278,207.07771 795.004962,207.097961 795.004962,207.097961 C795.011756,206.929202 795.201986,206.956204 795.331071,206.922452 C795.269926,206.902201 795.222368,206.611936 795.174811,206.584935 C794.957404,206.510681 794.875877,206.760444 794.835113,206.760444 C794.706028,206.733443 794.651677,206.618687 794.495416,206.584935 C794.019839,206.48368 793.69373,206.436428 793.14342,206.254168 C793.007541,205.903151 792.457231,205.599385 792.810516,205.248368 C792.491201,205.268619 792.246618,205.356373 792.137915,205.579134 C791.730278,205.49138 791.8186,205.039107 791.635163,204.748842 C791.444932,204.438327 791.132411,204.235816 790.962562,203.9118 C790.378282,204.046807 790.310343,203.662037 789.780415,203.743042 C789.753239,203.32452 790.045379,203.216515 790.120112,202.899249 C789.447511,202.737241 789.603772,203.412275 788.937965,203.236766 C788.815674,203.12201 788.706971,203.047756 788.598268,202.899249 C788.577886,202.878998 788.462389,202.575233 788.435213,202.568482 C788.136279,202.440226 787.551999,202.818245 787.762612,202.062207 C787.001689,202.305219 786.458173,201.967702 786.070918,201.400673 C785.880688,201.53568 785.622518,201.616684 785.235263,201.562681 C785.24885,200.988902 784.379225,201.299418 784.392813,200.725639 C784.290904,200.901148 784.059909,200.799893 783.890061,200.901148 C783.794945,200.9349 783.618303,201.204913 783.550363,201.231915 C782.993259,201.441175 782.279894,201.184662 782.198367,201.893448 C781.709203,201.879947 781.417063,202.028455 781.186069,202.399724 C781.01622,202.683238 780.825989,202.615735 780.520262,202.899249 C780.438734,202.973503 780.418352,203.182763 780.343619,203.236766 C780.200946,203.358272 779.976746,203.284018 779.840867,203.412275 C779.759339,203.473028 779.752545,203.682288 779.671018,203.743042 C779.528345,203.857797 779.297351,203.783544 779.161472,203.9118 C778.855744,204.195314 778.59078,204.883849 777.81627,204.917601 C777.578481,204.985104 777.7823,205.403625 777.653215,205.579134 C777.660009,205.572384 777.19802,205.714141 776.97382,205.916651 C776.803971,206.07866 776.783589,206.497181 776.301219,206.416177 C776.185722,206.544433 776.104194,206.645688 775.968315,206.760444 C775.764497,206.902201 775.424799,207.354474 775.125866,207.597486 C774.989987,207.698741 774.752198,207.67174 774.616319,207.759494 C774.494028,207.826998 774.378531,208.022758 774.276622,208.097011 C773.882573,208.367025 773.311881,208.529033 772.93142,208.927303 C772.877068,208.988056 772.985772,209.204067 772.93142,209.26482 C772.877068,209.318823 772.652868,209.210818 772.598516,209.26482 C772.455843,209.386327 772.401492,209.65634 772.258819,209.771096 C771.946297,210.007358 771.436751,210.209868 771.083466,210.608138 C770.967969,210.729644 771.02232,210.979407 770.913617,211.107664 C770.79812,211.22917 770.50598,211.154916 770.404071,211.276422 C770.17987,211.512684 770.145901,211.850201 769.901318,212.113464 C769.846967,212.174217 769.615973,212.059462 769.561621,212.113464 C769.425742,212.248471 769.548033,212.660242 769.221924,212.61299 C768.494971,212.450981 768.094128,212.22822 768.379474,211.445181 L767.537024,211.445181 C767.448703,211.343925 767.448703,211.22917 767.373969,211.107664 C767.319618,211.03341 767.23809,210.979407 767.210914,210.945655 C767.01389,210.628389 766.993508,209.993857 766.361671,209.933104 C766.449992,209.683342 766.613047,209.514583 766.694574,209.26482 C766.17144,209.143314 766.490756,209.84535 765.852125,209.602338 C765.526015,209.116313 765.295021,209.163565 765.519221,208.427778 C765.546397,208.06326 764.921353,208.353524 764.676771,208.25902 C765.009675,207.914752 764.608832,207.935003 764.337074,207.759494 C764.187607,207.462479 763.929437,207.26672 763.841116,206.922452 C763.48783,206.760444 763.168515,206.578185 762.828817,206.416177 C762.97149,205.8829 762.570647,205.8964 762.319271,205.747893 C762.346447,205.552133 762.631793,205.606136 762.828817,205.579134 C762.726908,205.174114 762.169804,205.228117 762.319271,204.580084 C761.64667,204.856848 761.802931,204.856848 761.137124,204.580084 C761.089566,204.31007 761.300178,204.289819 761.306972,204.073808 C761.09636,203.493279 760.817808,203.770043 760.464523,203.574283 C760.328644,203.162512 760.02971,202.885748 759.791922,202.568482 C759.554133,202.257967 759.173672,202.021705 759.119321,201.562681 C758.276871,201.191413 757.957555,201.326419 757.08793,201.562681 C756.721056,201.697688 756.673499,202.149961 756.422123,202.399724 C756.109601,202.406474 756.014486,202.710239 755.749522,202.899249 C755.566085,203.034256 755.239975,203.108509 755.070127,203.236766 C754.941042,203.351522 754.873102,203.466278 754.737223,203.574283 C754.513023,203.736291 754.173325,203.952302 754.064622,204.411325 C753.296906,204.593585 752.800948,205.045857 752.542778,205.747893 C752.243844,205.727642 752.189492,205.957153 751.87697,205.916651 C751.36063,206.470179 750.891848,207.064209 750.355126,207.597486 C750.096956,207.847249 749.77764,208.022758 749.512676,208.25902 C749.383591,208.380526 749.322445,208.65729 749.172979,208.772046 C749.071069,208.846299 748.785723,208.826048 748.670226,208.927303 C747.854952,209.669841 747.250291,210.64864 746.305932,211.276422 C745.918677,211.553186 745.905089,212.207969 745.137373,212.113464 C744.831645,211.856951 744.614238,211.505934 744.621032,210.945655 C744.478359,210.64864 744.104692,210.567636 743.608734,210.608138 C743.500031,210.358376 743.269036,210.115363 743.112776,209.933104 C742.949721,209.764346 742.50132,209.663091 742.610023,209.26482 C742.229562,209.359325 742.358647,208.947554 742.100477,208.927303 C741.828719,208.913803 741.808337,208.819298 741.597725,208.772046 C741.522991,208.448029 741.115354,208.46153 741.258027,207.928253 C740.748481,208.043009 740.639778,207.759494 740.245729,207.759494 C740.177789,206.929202 739.179079,207.037208 739.070376,206.254168 C739.00923,205.970654 739.199461,205.943653 739.410073,205.916651 C739.260606,205.423876 738.982054,206.139413 738.560829,205.916651 C738.350217,205.086359 736.563408,205.052608 737.045779,204.073808 C736.692493,204.094059 736.074244,204.391074 736.040274,203.743042 C736.026686,203.594534 735.646225,203.466278 735.537522,203.412275 C735.360879,203.31102 735.320116,203.169263 735.197824,203.074758 C734.898891,202.865497 734.409726,202.892499 734.518429,202.399724 C734.321405,202.426725 734.212702,202.365972 734.178732,202.230965 C733.737125,202.291718 732.521008,202.055456 732.500626,202.568482 C732.480245,202.777743 732.28322,202.649486 732.160929,202.737241 C731.943523,202.892499 731.76688,203.196264 731.488328,203.412275 C731.189394,203.635036 730.9584,203.668788 730.645878,204.073808 C730.523587,204.235816 730.435266,204.283069 730.306181,204.411325 C730.054805,204.674589 729.538465,204.836597 729.626786,205.248368 C729.028918,205.538632 728.227232,205.639887 728.118529,206.416177 C727.554631,206.638938 726.970352,206.841448 726.766533,207.421977 C726.277369,207.381475 726.250193,207.799996 725.754235,207.759494 C725.135985,208.367025 724.422621,208.886801 723.566583,209.26482 C723.254061,209.291822 723.45788,209.831849 723.226885,209.933104 C723.104594,209.993857 722.846424,209.85885 722.724133,209.933104 C722.540697,210.05461 722.540697,210.311123 722.384436,210.43938 C722.330084,210.486632 722.09909,210.385377 722.051532,210.43938 C721.908859,210.614889 721.494428,210.682392 721.046028,210.945655 C720.849003,211.04691 720.842209,211.134665 720.70633,211.276422 C720.441366,211.546436 720.162814,211.607189 719.517389,211.775947 C719.476625,211.789448 719.517389,211.931205 719.361128,211.944706 C719.130134,211.958207 718.89914,211.931205 718.681733,211.944706 C718.450739,211.728695 718.518678,211.222419 718.518678,210.770146 C718.559442,210.392127 718.02272,210.587887 718.009132,210.263871 C717.914017,209.906103 718.328448,210.034359 718.34883,209.771096 C718.233333,209.352575 717.900429,210.081612 717.50638,209.933104 C717.424853,209.622589 717.02401,209.636089 717.166682,209.096062 C716.813397,209.46058 716.66393,208.880051 716.154384,208.927303 C716.079651,208.610037 715.787511,208.508782 715.814687,208.097011 C715.726365,207.786496 715.379874,208.171265 715.311934,208.097011 C715.176055,207.935003 715.162467,207.881001 714.979031,207.759494 C714.815976,207.658239 714.605364,207.428728 714.30643,207.259969 C714.245284,207.219467 714.007496,207.307222 713.966732,207.259969 C713.919175,207.199216 713.851235,206.956204 713.796884,206.922452 C713.742532,206.88195 713.504744,206.976455 713.457186,206.922452 C713.416422,206.868449 713.348483,206.618687 713.287337,206.584935 C713.232986,206.544433 713.001991,206.638938 712.94764,206.584935 C712.866112,206.48368 712.499239,205.768144 712.111984,205.747893 C711.921753,205.741142 711.446177,205.309121 711.446177,204.917601 C711.174419,204.782594 710.834722,204.863598 710.596933,204.748842 C710.515406,204.70834 710.48823,204.438327 710.427085,204.411325 C710.345557,204.370823 710.148533,204.465328 710.087387,204.411325 C709.965096,204.31007 709.883569,203.992804 709.754484,203.9118 C709.503107,203.770043 709.176998,203.925301 708.912034,203.743042 C708.816919,203.675538 708.864476,203.297519 708.742185,203.236766 C707.845384,203.182763 707.648359,202.426725 706.894231,202.230965 C706.581709,201.866447 706.384685,201.393923 705.875138,201.231915 C705.216125,201.13066 704.998719,201.474927 704.699785,201.73819 C704.38047,201.690938 704.115505,201.73144 703.857335,201.893448 C703.490462,202.143211 702.91977,202.52798 702.675188,202.737241 C702.410224,202.973503 702.077321,203.176013 702.002587,203.574283 C701.927854,203.614785 701.730829,203.52028 701.66289,203.574283 C701.228077,203.959052 700.942731,204.478829 700.487536,204.917601 C700.378833,205.018856 700.093487,204.971604 699.984784,205.086359 C699.869287,205.194365 699.937227,205.48463 699.814935,205.579134 C699.75379,205.633137 699.522796,205.525132 699.475238,205.579134 C699.46165,205.606136 699.502414,205.741142 699.475238,205.747893 C699.414092,205.774894 699.183098,205.70064 699.13554,205.747893 C699.020043,205.88965 698.938516,206.240668 698.632788,206.254168 C698.537673,206.254168 698.197975,206.551183 697.953393,206.760444 C697.905836,206.794196 697.837896,207.07096 697.797132,207.097961 C697.715605,207.124962 697.518581,207.043958 697.457435,207.097961 C697.396289,207.138463 697.511787,207.381475 697.457435,207.421977 C697.321556,207.536733 697.131325,207.354474 697.117737,207.597486 C697.10415,207.793246 696.642161,207.914752 696.445136,208.097011 C696.302464,208.225268 696.159791,208.400777 695.93559,208.589786 C695.901621,208.630288 695.623069,208.731544 695.595893,208.772046 C695.575511,208.812548 695.64345,209.069061 695.595893,209.096062 C695.398868,209.237819 695.038789,209.05556 694.923292,209.26482 C694.631152,209.305323 694.542831,209.555085 694.583594,209.933104 C693.632441,209.764346 693.720763,210.628389 692.905489,210.608138 L692.905489,211.276422 C692.035863,211.134665 692.164948,211.985208 691.723342,212.275473 L690.880892,212.275473 C690.60234,210.945655 689.399811,210.513634 688.69324,209.602338 C687.91873,209.480831 687.477123,209.05556 686.845286,208.589786 C686.471619,208.333273 686.002836,208.171265 685.826193,207.759494 C685.45932,207.799996 685.23512,207.759494 684.983744,207.597486 C684.963362,207.577235 684.786719,207.415227 684.813895,207.421977 C684.542137,207.327473 684.039385,207.374725 683.80839,207.259969 C683.624954,207.165464 683.65213,206.841448 683.298844,206.760444 C683.224111,206.733443 683.027086,206.807696 682.965941,206.760444 C682.48357,206.402676 682.218606,205.545383 681.45089,205.579134 C681.199514,205.207866 680.880198,204.856848 680.431798,204.580084 C680.357064,204.532831 680.3163,204.438327 680.268743,204.411325 C680.146452,204.337072 679.895076,204.337072 679.76599,204.249317 C679.711639,204.202065 679.650493,203.938801 679.596142,203.9118 C679.365147,203.803795 679.202093,203.776793 678.923541,203.574283 C678.672165,203.398774 678.21697,203.290769 678.25094,202.899249 C678.053915,202.92625 677.952006,202.872248 677.911242,202.737241 C676.518483,202.413224 676.572834,203.527031 675.383893,203.412275 C675.071371,203.432526 675.27519,203.979303 675.044196,204.073808 C674.222128,203.992804 674.303655,204.789344 673.529145,204.748842 C673.182653,204.69484 673.406854,205.241617 673.196241,205.423876 C673.169066,205.437377 673.03998,205.390125 673.026393,205.423876 C672.917689,205.552133 672.788604,205.572384 672.693489,205.747893 C672.639137,205.828897 672.584786,206.017906 672.516846,206.08541 C672.387761,206.220417 672.177149,206.132662 672.014094,206.254168 C671.864627,206.362174 671.640427,206.996706 671.171644,206.922452 C670.981414,207.293721 670.607747,207.47598 670.492249,207.928253 C669.955527,208.002507 669.90797,208.556035 669.316896,208.589786 C669.337278,208.893552 669.113078,208.947554 669.153841,209.26482 C668.84132,209.244569 668.793762,209.467331 668.474446,209.433579 C668.379331,210.209868 667.564057,210.45288 667.12245,210.945655 C666.952602,211.134665 666.96619,211.384428 666.789547,211.607189 C666.64008,211.809699 666.429468,211.937955 666.286795,212.113464 C666.110152,212.322725 665.953891,212.437481 665.784042,212.61299 C665.729691,212.666992 665.838394,212.903254 665.784042,212.950507 C665.634576,213.058512 665.396787,212.991009 665.274496,213.112515 C665.152205,213.234021 665.158999,213.60529 664.934799,213.61204 C664.425252,213.645792 664.031203,214.901355 663.249899,214.962108 C662.896614,215.070114 663.018905,214.766348 662.916996,214.624591 C662.842262,214.523336 662.638444,214.381579 662.577298,214.293824 C662.475389,214.118316 662.502565,213.949557 662.414243,213.787549 C662.359892,213.699794 662.244395,213.81455 662.237601,213.61204 C662.224013,213.335276 661.748436,213.281273 661.734848,212.950507 C661.721261,212.720995 661.198126,212.592739 661.232096,212.113464 C660.926369,211.958207 660.736138,211.708444 660.389646,211.607189 C660.410028,211.310174 660.185828,211.256171 660.219798,210.945655 C659.907276,210.810649 659.649106,210.64189 659.384142,210.43938 C659.146354,210.257121 658.901772,209.919604 658.704747,209.771096 C658.344668,209.487582 657.848709,209.352575 657.5226,208.927303 C657.427485,208.805797 657.339163,208.475031 657.019848,208.427778 C657.074199,208.441279 656.924732,208.697792 656.849999,208.589786 C656.720914,208.441279 656.483126,208.26577 656.177398,208.097011 C655.783349,207.87425 655.484415,207.509732 655.002045,207.421977 C654.696317,206.605186 653.935394,206.254168 653.650049,205.423876 C653.011417,205.268619 652.787217,204.70159 652.304847,204.249317 C652.243701,204.188564 652.026295,204.29657 651.965149,204.249317 C651.917591,204.202065 652.026295,203.952302 651.965149,203.9118 C651.822476,203.803795 651.60507,203.817295 651.462397,203.743042 C651.238197,203.628286 651.156669,203.567533 650.613153,203.574283 C650.511244,203.574283 650.001698,203.675538 649.940552,203.743042 C649.926964,203.763293 649.967728,203.898299 649.940552,203.9118 C649.879407,203.938801 649.648412,203.857797 649.607649,203.9118 C649.587267,203.932051 649.621237,204.060308 649.607649,204.073808 C649.539709,204.10081 649.308715,204.026556 649.267951,204.073808 C649.254363,204.10081 649.288333,204.235816 649.267951,204.249317 C649.200012,204.283069 648.969017,204.195314 648.935048,204.249317 C648.914666,204.262818 648.948636,204.397825 648.935048,204.411325 C648.873902,204.438327 648.62932,204.364073 648.59535,204.411325 C648.581762,204.431576 648.622526,204.566583 648.59535,204.580084 C648.398326,204.69484 648.092598,204.796095 647.922749,204.917601 C647.732519,205.045857 647.576258,205.268619 647.419997,205.423876 C647.243354,205.565634 647.073505,205.788395 646.910451,205.916651 C646.856099,205.963904 646.618311,205.862649 646.570753,205.916651 C646.455256,206.058408 646.373729,206.409426 646.068001,206.416177 C645.667158,206.443178 645.293491,206.996706 644.892648,207.259969 C644.790738,207.313972 644.919823,207.415227 644.716005,207.421977 C644.396689,207.435478 643.873555,208.171265 643.533858,208.427778 C643.330039,208.589786 643.105839,208.603287 642.861257,208.772046 C642.664232,208.893552 642.548735,209.116313 642.365298,209.26482 C641.950868,209.588837 641.339412,209.710343 641.353,210.263871 C640.904599,210.128864 640.741545,210.371876 640.51055,210.608138 C640.313526,210.797148 640.109707,211.006408 639.837949,211.276422 C639.654513,211.451931 639.51184,211.63419 638.9955,211.607189 C638.737329,211.917704 638.526717,212.315975 638.15305,212.61299 C638.051141,212.693994 638.173432,212.768247 637.983201,212.774998 C637.650298,212.795249 637.79297,213.085513 637.63671,213.288024 C637.473655,213.510785 637.059224,213.733546 636.631205,213.956307 C635.523791,213.80105 635.455852,212.653492 634.9531,211.944706 C634.756075,211.667942 634.504699,211.505934 634.273705,211.276422 C634.063092,211.060411 633.770952,210.817399 633.601104,210.608138 C633.553546,210.547385 633.655455,210.317874 633.601104,210.263871 C633.438049,210.142365 633.397285,210.095112 633.261406,209.933104 C632.548041,209.069061 631.71918,208.198267 630.903906,207.421977 C630.801996,207.334223 630.659323,207.158714 630.564208,207.097961 C630.455505,207.003456 630.176953,207.023707 630.061456,206.922452 C629.932371,206.814447 630.013898,206.544433 629.898401,206.416177 C629.84405,206.362174 629.606261,206.47693 629.558704,206.416177 C629.320915,206.132662 628.784193,205.383374 628.206708,205.248368 C628.118386,204.998605 627.962126,204.823096 627.873804,204.580084 C627.602046,204.620586 627.296318,204.526081 627.031354,204.580084 C626.650893,204.647587 626.746009,204.762343 626.528602,204.917601 C626.440281,204.971604 626.093789,204.998605 626.012262,205.086359 C625.747298,205.356373 625.747298,205.801896 625.50951,206.08541 C625.061109,206.08541 625.067903,206.544433 624.843703,206.760444 C624.782557,206.814447 624.565151,206.699691 624.504005,206.760444 C624.402096,206.848198 624.544769,207.394976 624.001253,207.259969 C624.143926,207.698741 623.688731,207.556984 623.661555,207.928253 C623.641174,208.245519 623.179185,207.995756 623.158803,208.427778 C623.158803,208.481781 622.866663,208.724793 622.819106,208.772046 C622.710403,208.8598 622.370705,209.224318 622.139711,209.433579 C621.997038,209.568586 621.854365,209.703593 621.636959,209.771096 C621.636959,210.324624 621.093443,210.338125 621.134206,210.945655 C620.672218,210.817399 620.794509,211.276422 620.461605,211.276422 C620.230611,212.045961 619.693889,212.518485 619.109609,212.950507 C619.116403,213.234021 618.987318,213.382528 618.769912,213.450032 L618.769912,214.293824 C618.45739,214.530086 617.900286,214.536837 617.771201,214.962108 C617.445092,214.887854 617.343182,214.59759 616.921958,214.624591 C616.928752,214.118316 616.561878,213.969808 616.412411,213.61204 C615.603931,212.862752 614.578045,212.322725 614.217966,211.107664 C613.103758,210.722894 612.546654,209.764346 611.357713,209.433579 C611.412065,209.001557 610.936488,208.812548 610.685112,208.589786 C610.40656,208.340024 610.087244,208.157765 609.849456,207.928253 C609.312734,207.435478 609.020594,206.834698 608.490666,206.416177 C608.361581,206.308171 608.123793,206.335172 607.987914,206.254168 C607.872417,206.179915 607.763714,205.990905 607.65501,205.916651 C607.532719,205.828897 607.288137,205.849148 607.152258,205.747893 C607.070731,205.69389 607.050349,205.464378 606.975616,205.423876 C606.500039,205.09986 605.868202,204.775844 605.29751,204.580084 C604.672467,204.715091 604.271624,205.214616 603.782459,205.579134 C603.632992,205.69389 603.571847,205.808646 603.442762,205.916651 C603.381616,205.977404 603.16421,205.862649 603.103064,205.916651 C603.055507,205.970654 603.16421,206.206916 603.103064,206.254168 C602.973979,206.355424 602.742985,206.341923 602.600312,206.416177 C602.511991,206.470179 602.627488,206.578185 602.437257,206.584935 C602.226645,206.591685 602.13153,206.834698 601.927711,207.097961 C601.880153,207.138463 601.615189,207.205966 601.588014,207.259969 C601.554044,207.334223 601.642365,207.523232 601.588014,207.597486 C601.472516,207.732493 601.193964,207.786496 601.078467,207.928253 C601.010528,208.022758 601.017322,208.333273 600.908619,208.427778 C600.786328,208.556035 600.568921,208.475031 600.41266,208.589786 C600.310751,208.67079 600.100139,209.244569 599.733265,209.26482 C599.400362,209.285071 599.556623,209.588837 599.393568,209.771096 C599.203337,209.980357 598.951961,209.919604 598.727761,210.263871 C598.428827,210.729644 597.783402,211.141415 597.205916,211.607189 C597.056449,211.735445 597.015686,211.991958 596.873013,212.113464 C596.73034,212.22822 596.499345,212.174217 596.363466,212.275473 C596.234381,212.390228 596.173236,212.687243 596.030563,212.774998 C595.867508,212.889754 595.650102,212.8155 595.521017,212.950507 C595.33758,213.146267 595.174525,213.544537 595.018264,213.787549 C594.828034,214.091314 594.610627,214.327576 594.515512,214.624591 C594.148639,214.449082 593.836117,214.847352 593.49642,214.79335 C593.489626,214.786599 593.455656,214.631342 593.340159,214.624591 C593.319777,214.624591 592.891758,214.496335 592.830613,214.455833 C592.65397,214.354578 592.497709,214.077814 592.321066,213.956307 C592.239539,213.895554 592.056102,213.861803 591.988163,213.787549 C591.933811,213.726796 591.872666,213.490534 591.818314,213.450032 C591.485411,213.247522 591.050598,213.362277 590.975864,212.774998 C590.602197,212.714245 590.187766,212.531985 589.793717,212.275473 C589.705396,212.214719 589.820893,212.126965 589.630662,212.113464 C589.467608,212.106714 588.910504,211.62744 588.618364,211.445181 C588.523249,211.384428 588.638746,211.289923 588.448515,211.276422 C588.197139,211.262921 587.572096,210.547385 587.266368,210.263871 C587.150871,210.162616 586.777204,210.149115 586.756822,209.933104 C586.750028,209.730594 586.383155,209.602338 586.260863,209.26482 C585.696966,209.26482 585.683378,208.724793 585.078716,208.772046 C585.099098,208.46153 584.854516,208.110512 584.575964,208.097011 C584.487643,208.097011 584.147945,207.610987 583.896569,207.421977 C583.522902,207.138463 582.911446,206.787445 582.388312,206.416177 C581.85159,206.510681 581.545863,206.821197 581.36922,207.259969 C580.513182,207.327473 580.085163,208.130763 579.514472,208.589786 C579.385387,208.711292 579.140804,208.66404 579.011719,208.772046 C578.352706,209.278321 577.829572,209.933104 576.993916,210.263871 C576.762922,210.392127 576.613455,210.743145 576.314521,210.945655 C576.219406,211.006408 575.567187,211.087413 575.478866,211.276422 C575.38375,211.472182 575.370162,211.708444 575.139168,211.944706 C574.948938,212.133715 574.38504,211.991958 574.466567,212.61299 C573.583354,212.457732 573.57656,213.186769 572.951516,213.288024 C572.747698,213.234021 572.869989,213.558037 572.774874,213.61204 C572.625407,213.726796 572.170212,213.686294 572.109067,214.125066 C571.694636,214.050812 571.742193,214.428831 571.266617,214.293824 C571.069592,214.523336 571.042417,214.563838 570.757071,214.79335 C570.641574,214.887854 570.417373,215.110616 570.247525,215.124116 C569.948591,215.144367 568.739268,216.831953 568.236515,215.468384 C567.978345,215.38738 568.256897,215.306376 568.236515,215.124116 C568.20934,214.948608 567.856054,213.956307 568.066667,213.288024 C568.080255,213.227271 568.236515,213.072013 568.236515,213.112515 C568.236515,212.849252 568.039491,212.82225 568.066667,212.61299 C568.087049,212.315975 568.222928,212.255222 568.236515,211.944706 C568.236515,211.613939 568.046285,211.256171 568.066667,210.945655 C568.066667,210.972657 568.229722,210.864651 568.236515,210.770146 C568.236515,210.547385 568.222928,210.324624 568.236515,210.101863 C568.72568,209.595587 569.418663,209.717093 570.077676,209.433579 C570.159203,209.399827 570.077676,209.278321 570.247525,209.26482 C570.247525,209.26482 570.716307,209.129814 570.757071,209.096062 C570.82501,209.042059 570.85898,208.805797 570.926919,208.772046 C571.144326,208.637039 571.551963,208.556035 571.769369,208.427778 C572.013951,208.27252 572.1838,208.218518 572.265328,207.928253 L572.951516,207.928253 C573.209687,207.772995 573.270832,207.428728 573.447475,207.259969 C573.583354,207.145213 573.841524,207.199216 573.957021,207.097961 C574.154045,206.915702 574.255955,206.780695 574.636416,206.584935 C574.942144,206.429677 575.438102,206.233917 575.64192,205.747893 C576.48437,205.69389 576.939565,205.255118 577.156971,204.580084 C577.754839,204.667838 577.578196,203.992804 578.16927,204.073808 C578.400264,203.594534 578.828283,203.371773 579.351417,203.074758 C579.514472,202.973503 579.562029,202.824995 579.68432,202.737241 C579.969666,202.534731 580.316158,202.419975 580.52677,202.230965 C581.049904,201.785443 581.267311,201.204913 581.878766,200.901148 C581.770063,200.286867 581.994263,200.010103 582.218464,199.726589 L583.896569,199.726589 C583.882981,200.023604 584.066418,200.199113 584.236267,200.394872 C584.399321,200.590632 584.711843,200.712138 584.915661,200.901148 C585.024365,201.009153 584.963219,201.279167 585.078716,201.400673 C585.133068,201.447926 585.370856,201.33992 585.418414,201.400673 C585.622232,201.650436 585.989106,202.13646 586.423918,202.399724 C587.042168,202.784493 587.843854,203.71604 588.618364,204.249317 C588.754243,204.337072 588.93768,204.566583 589.12791,204.580084 C589.284171,204.580084 589.372492,204.971604 589.467608,205.086359 C589.916008,205.072859 590.235324,205.457628 590.629373,205.747893 C590.792428,205.862649 590.982658,206.139413 591.145713,206.254168 C591.200065,206.29467 591.437853,206.200166 591.478617,206.254168 C591.512586,206.301421 591.600908,206.557934 591.648465,206.584935 C591.872666,206.726692 592.225951,206.618687 592.490915,206.760444 C592.65397,206.834698 592.65397,207.239718 593.000461,207.259969 C593.380923,207.28022 593.292601,207.448979 593.49642,207.597486 C593.564359,207.631238 593.795353,207.536733 593.836117,207.597486 C593.992378,207.772995 594.060318,207.698741 594.345663,207.759494 C594.678567,207.826998 594.651391,207.955254 595.188113,207.759494 C595.30361,207.718992 595.548192,207.67174 595.697659,207.597486 C595.996593,207.421977 596.098502,207.185715 596.363466,206.922452 C596.485757,206.814447 596.587667,206.699691 596.709958,206.584935 C596.893394,206.395926 597.17874,206.267669 597.53882,206.08541 C597.871723,206.058408 597.620347,205.606136 598.048366,205.579134 C598.238596,205.572384 598.265772,205.174114 598.388063,205.086359 C598.442415,205.032357 598.680203,205.140362 598.727761,205.086359 C598.754937,205.045857 598.700585,204.937852 598.727761,204.917601 C599.115016,204.553082 599.515859,204.073808 600.072963,203.9118 C600.052581,203.608035 600.276781,203.554032 600.242812,203.236766 C600.650449,203.182763 600.799915,202.818245 601.078467,202.568482 C601.357019,202.32547 601.642365,202.143211 601.927711,201.893448 C602.06359,201.778692 602.124736,201.495178 602.260615,201.400673 C602.423669,201.285917 602.627488,201.346671 602.770161,201.231915 C602.912834,201.123909 602.967185,200.826894 603.103064,200.725639 C603.272913,200.617634 603.463144,200.671636 603.605817,200.563631 C603.877575,200.361121 604.020247,200.118108 604.285212,199.895347 C604.543382,199.672586 604.896667,199.611833 605.120867,199.389072 C605.55568,198.977301 605.77988,198.36977 606.309808,198.052504 C607.335695,198.025503 607.444398,198.936799 608.327611,199.051555 C608.354787,199.584832 608.945861,199.55108 609.000212,200.064106 C610.195948,200.212613 610.44053,201.306168 611.527562,201.562681 L611.527562,202.062207 C612.118635,202.311969 612.546654,202.615735 613.049406,203.074758 C613.226049,203.236766 613.654068,203.398774 613.545365,203.743042 C614.129644,203.776793 614.469342,204.256067 614.897361,204.580084 C615.087591,204.728591 615.155531,204.883849 615.400113,205.086359 C615.569962,205.214616 615.936835,205.275369 616.079508,205.423876 C616.188211,205.518381 616.133859,205.815396 616.249357,205.916651 C616.378442,206.038157 616.595848,205.970654 616.758903,206.08541 C617.268449,206.47693 617.859523,207.631238 618.769912,207.928253 C619.07564,207.935003 619.109609,207.725743 619.279458,207.597486 C619.551216,207.381475 619.938471,207.212717 620.29855,206.922452 C620.339314,206.88195 620.407254,206.611936 620.461605,206.584935 C620.529545,206.557934 620.746951,206.638938 620.794509,206.584935 C620.991533,206.389175 621.10703,206.031407 621.297261,205.747893 C621.371995,205.639887 621.575813,205.518381 621.636959,205.423876 C621.704898,205.322621 621.718486,205.012106 621.800013,204.917601 C621.854365,204.856848 622.098947,204.971604 622.139711,204.917601 C622.255208,204.775844 622.139711,204.485579 622.479408,204.580084 C622.737578,204.451827 622.676433,204.094059 622.819106,203.9118 C623.022924,203.641786 623.403385,203.52028 623.661555,203.236766 C623.797434,203.088258 623.865374,202.905999 624.001253,202.737241 C624.239041,202.419975 624.626296,201.981203 625.006757,201.562681 C625.224164,201.319669 625.421188,200.847145 625.849207,200.901148 C625.672565,200.293617 626.385929,200.070856 626.691657,199.726589 C626.956621,199.429574 626.915857,198.9638 627.371052,198.889546 C627.405022,198.37652 627.731131,198.133508 627.873804,197.721737 C628.064035,197.748739 628.172738,197.674485 628.206708,197.546229 C629.055951,197.640733 629.03557,197.546229 629.721758,197.721737 C629.585879,198.187511 629.959547,198.147009 629.898401,198.552029 C630.170159,199.179811 630.937875,199.294567 631.080548,200.064106 C631.250397,200.172111 631.590095,200.084357 631.746355,200.226114 C631.848265,200.320619 631.821089,200.631134 631.916204,200.725639 C632.215138,201.049656 633.064382,201.468177 633.091557,202.230965 C633.723395,202.055456 633.573928,202.649486 634.103856,202.568482 C634.165001,203.101759 634.647372,203.182763 634.9531,203.574283 C635.021039,203.668788 635.041421,203.824046 635.116154,203.9118 C635.163712,203.965803 635.394706,203.851047 635.449058,203.9118 C635.516997,203.965803 635.394706,204.181814 635.449058,204.249317 C635.530585,204.330321 636.108071,204.559833 636.128453,204.917601 C636.142041,205.140362 636.481738,205.268619 636.801054,205.423876 C637.140751,206.308171 638.023965,206.659189 638.485953,207.421977 C638.778093,207.27347 639.009087,207.050709 639.158554,206.760444 C640.075737,206.989956 639.858331,206.119162 640.680399,206.254168 C640.863836,206.152913 640.891011,205.916651 641.006509,205.747893 C641.122006,205.606136 641.441321,205.592635 641.353,205.248368 C641.774225,205.275369 641.862546,204.985104 642.19545,204.917601 C642.406062,204.850097 642.38568,204.539582 642.528353,204.411325 C642.596293,204.357323 642.793317,204.451827 642.861257,204.411325 C643.065075,204.289819 643.017518,203.925301 643.370803,203.9118 C643.730882,203.891549 643.703707,203.743042 643.7105,203.412275 C644.688829,203.486529 644.885854,202.791243 645.232345,202.230965 C646.339759,202.001454 646.740602,201.063156 647.759694,200.725639 C647.834428,200.482627 648.004277,200.313868 648.092598,200.064106 C648.683672,200.15186 648.500235,199.470076 649.104896,199.55783 C649.329097,199.395822 649.4378,199.112308 649.607649,198.889546 L650.103607,198.889546 C650.497656,198.76129 650.613153,198.383271 650.783002,198.052504 C651.754537,198.012002 651.985531,197.228963 652.630956,196.877945 C653.636461,196.614681 653.507376,197.471975 654.32265,197.38422 C654.431353,197.613732 654.363413,197.829743 654.492498,198.052504 C654.587614,198.221263 655.314566,198.714038 655.334948,199.051555 C655.341742,199.112308 655.620294,199.328319 655.674646,199.389072 C655.783349,199.517328 656.089076,200.131609 656.517095,200.064106 C656.666562,200.73914 657.033435,201.211664 657.692449,201.400673 C657.502218,202.143211 658.596044,202.460477 659.044444,202.899249 C659.10559,202.960002 659.146354,203.203014 659.207499,203.236766 C659.39773,203.358272 659.696664,203.263767 659.8801,203.412275 C660.151858,203.614785 660.342089,204.006305 660.552701,204.249317 C660.797283,204.343822 661.007896,204.289819 661.232096,204.411325 C661.30683,204.451827 661.347593,204.721841 661.395151,204.748842 C661.483472,204.782594 661.666909,204.69484 661.734848,204.748842 C661.795994,204.789344 661.680497,205.039107 661.734848,205.086359 C662.060958,205.349623 662.88982,205.849148 663.249899,206.254168 C663.528451,206.557934 663.609979,207.003456 663.9225,207.259969 C663.949676,207.570485 664.493192,207.361224 664.595101,207.597486 C664.663041,208.137514 665.09106,208.326523 665.274496,208.772046 C665.790836,208.724793 666.001449,208.198267 666.456643,207.928253 C666.721607,207.772995 666.843899,207.604237 667.12245,207.259969 C667.231154,207.138463 667.380621,207.030458 667.462148,206.922452 C667.77467,206.524182 667.77467,205.8829 668.644295,205.916651 C668.406507,205.309121 668.970405,205.48463 669.316896,205.248368 C669.473157,205.140362 669.35766,204.870348 669.486745,204.748842 C669.588654,204.634087 669.880794,204.69484 669.989497,204.580084 C670.349576,204.202065 670.485455,203.743042 671.001796,203.412275 C671.096911,203.351522 670.97462,203.243516 671.171644,203.236766 C671.545312,203.216515 671.334699,202.750741 671.674397,202.737241 C672.190737,202.710239 672.394555,201.522179 673.196241,201.73819 C673.495175,201.576182 673.338914,201.299418 673.529145,201.063156 C673.637848,200.921399 673.909606,201.015904 674.031897,200.901148 C674.1406,200.786392 674.079455,200.496128 674.201746,200.394872 C674.262891,200.34762 674.50068,200.448875 674.541443,200.394872 C674.595795,200.34087 674.650146,200.091107 674.704498,200.064106 C675.044196,199.827844 675.506184,199.598332 675.886645,199.227063 C676.138021,198.984051 676.37581,198.660035 676.56604,198.383271 L677.061999,198.383271 C677.265817,198.17401 677.014441,198.180761 677.231847,197.883746 C677.347344,197.735238 677.884066,197.795991 677.741394,197.38422 C678.611019,197.18171 678.943923,196.452673 679.76599,196.209661 C679.759197,196.452673 680.112482,196.283915 680.268743,196.38517 C680.411416,196.459424 680.853022,196.97245 681.111192,197.215462 C681.478066,197.559729 681.74303,198.072755 682.123491,198.383271 C682.177843,198.430523 682.408837,198.329268 682.463188,198.383271 C682.503952,198.437274 682.578686,198.680286 682.626243,198.714038 C682.687389,198.76129 682.911589,198.666785 682.965941,198.714038 C683.020292,198.795042 683.06785,199.004302 683.135789,199.051555 C683.393959,199.260815 683.985033,199.389072 683.971445,199.895347 C684.331525,199.983102 684.68481,200.178862 684.983744,200.394872 C685.228326,200.563631 685.438938,200.907898 685.663139,201.063156 C685.71749,201.110409 685.948485,201.002403 686.002836,201.063156 C686.111539,201.204913 686.261006,201.555931 686.505588,201.73819 C686.648261,201.839445 686.865668,201.805694 687.008341,201.893448 C687.130632,201.974452 687.239335,202.156711 687.348038,202.230965 C687.517887,202.352471 687.674148,202.440226 687.843996,202.568482 C687.9527,202.642736 688.095373,202.858747 688.190488,202.899249 C688.482628,203.074758 688.883471,203.068007 689.195992,203.236766 C689.284314,203.290769 689.168817,203.398774 689.372635,203.412275 C689.440575,203.412275 689.617217,203.527031 689.705539,203.574283 C689.990884,203.70929 690.201497,203.864548 690.541194,204.073808 C690.63631,204.134561 690.5344,204.202065 690.717837,204.249317 C691.11868,204.343822 691.288529,204.640837 691.723342,204.917601 C692.171742,205.194365 692.491058,205.248368 692.905489,205.579134 C693.156865,205.788395 693.550914,206.152913 694.257485,206.08541 C694.712679,206.200166 694.801001,205.639887 695.093141,205.423876 C695.16108,205.376624 695.38528,205.464378 695.426044,205.423876 C695.45322,205.390125 695.405662,205.261868 695.426044,205.248368 C695.48719,205.207866 695.724978,205.30237 695.765742,205.248368 C695.786123,205.234867 695.74536,205.09986 695.765742,205.086359 C695.833681,205.052608 696.064675,205.133612 696.112233,205.086359 C696.125821,205.059358 696.078263,204.924351 696.112233,204.917601 C696.166585,204.883849 696.397579,204.958103 696.445136,204.917601 C696.635367,204.674589 696.893537,204.580084 697.117737,204.249317 C697.178883,204.154812 697.273998,204.276318 697.287586,204.073808 C697.301174,203.844297 697.803926,203.824046 697.790338,203.412275 C698.000951,203.365022 698.259121,203.466278 698.456146,203.412275 C698.782255,203.31777 698.856989,202.683238 698.972486,203.074758 C699.223862,202.993754 698.904546,202.858747 698.972486,202.568482 C699.42768,202.467227 699.386917,201.866447 699.984784,201.893448 C700.256542,201.211664 701.031052,200.9484 701.499835,200.394872 C701.567774,200.300368 701.656096,200.421874 701.66289,200.226114 C701.676478,200.010103 702.138466,199.922349 702.335491,199.726589 C702.464576,199.584832 702.389842,199.382321 702.505339,199.227063 C702.580073,199.132559 702.777097,199.139309 702.845037,199.051555 C703.205116,198.639784 703.463286,198.234763 704.197033,198.052504 C704.387263,197.802741 704.767725,197.444973 705.032689,197.046703 C705.134598,196.958949 705.250095,196.958949 705.365592,196.877945 C705.453914,196.830692 705.501471,196.736188 705.535441,196.709186 C705.644144,196.648433 705.922696,196.634933 706.051781,196.547178 C706.391479,196.277164 706.425448,195.642632 707.233928,195.703385 C707.587214,195.453623 707.729887,194.981099 708.395694,195.035102 C708.952798,194.832591 708.531573,195.581879 709.075089,195.365868 C709.156616,195.689885 709.441962,195.79789 709.414786,196.209661 C710.060211,196.682185 710.827928,197.039953 711.10648,197.883746 C711.317092,197.863495 711.602438,197.849994 711.602438,198.052504 C711.602438,198.302267 711.955723,198.113257 712.111984,198.221263 C712.261451,198.315767 712.309009,198.626283 712.444888,198.714038 C712.607942,198.828793 712.811761,198.76804 712.94764,198.889546 C713.103901,199.004302 713.151458,199.254065 713.287337,199.389072 C713.348483,199.443074 713.572683,199.328319 713.627035,199.389072 C713.735738,199.497077 713.654211,200.111358 714.30643,199.895347 C714.360781,200.097857 714.517042,200.253115 714.639333,200.394872 C714.673303,200.435374 714.958649,200.516379 714.979031,200.563631 C715.006207,200.631134 714.924679,200.847145 714.979031,200.901148 C715.026588,200.9484 715.264377,200.840395 715.311934,200.901148 C715.461401,201.076657 715.617662,201.265666 715.814687,201.562681 C716.290263,201.434425 716.256293,201.798943 716.657136,201.73819 C716.840573,201.765192 716.718282,202.143211 716.826985,202.230965 C716.881337,202.284968 717.119125,202.176962 717.166682,202.230965 C717.207446,202.284968 717.28218,202.541481 717.336531,202.568482 C717.50638,202.676488 717.689817,202.615735 717.839283,202.737241 C718.09066,202.933001 718.28089,203.236766 718.518678,203.412275 C719.035019,203.776793 719.578535,204.181814 720.196784,204.411325 C720.332663,204.566583 720.373427,204.789344 720.366633,205.086359 C720.556863,205.147112 720.862591,204.991855 721.046028,205.086359 C721.093585,205.09986 720.99847,205.383374 721.046028,205.423876 C721.243052,205.626387 721.51481,205.423876 721.888477,205.579134 C721.983593,205.626387 722.139853,205.8829 722.221381,205.916651 C722.418405,205.997655 722.737721,205.815396 722.724133,206.08541 C723.084212,206.038157 723.410322,205.741142 723.736432,205.579134 C723.933456,205.48463 724.069335,205.518381 724.239184,205.423876 C724.354681,205.356373 724.504148,205.113361 724.578881,205.086359 C724.71476,205.018856 724.952549,205.147112 725.081634,205.086359 C725.326216,204.958103 725.754235,204.796095 725.754235,204.411325 C726.33172,204.674589 726.481187,203.695789 726.766533,204.249317 C727.133406,204.208815 727.079055,203.776793 727.276079,203.574283 C727.405164,203.432526 727.935092,203.452777 727.778832,203.074758 C728.009826,202.973503 728.227232,203.034256 728.458227,202.899249 C728.519372,202.865497 728.560136,202.602234 728.628075,202.568482 C728.716397,202.534731 728.879451,202.622485 728.967773,202.568482 C729.090064,202.480728 729.158003,202.338971 729.300676,202.230965 C729.388998,202.170212 729.552052,202.143211 729.626786,202.062207 C729.82381,201.893448 730.014041,201.616684 730.143126,201.400673 C730.44206,201.420924 730.489617,201.191413 730.808933,201.231915 C731.25054,200.73914 731.549474,200.165361 732.160929,199.726589 C732.215281,199.389072 732.126959,199.200062 731.828025,199.227063 C731.889171,198.849044 732.656887,199.15956 732.996585,199.051555 C733.38384,198.936799 733.506131,198.545279 733.67598,198.221263 C734.19232,198.342769 734.002089,197.762239 734.518429,197.883746 C734.735836,197.033203 735.782104,197.012952 736.040274,196.209661 C736.61776,196.344668 736.678905,195.959898 737.215627,196.047653 C737.276773,196.479675 737.71838,196.547178 737.71838,197.046703 C737.990138,197.404471 738.282278,197.728488 738.560829,198.052504 C738.852969,198.383271 739.097551,198.795042 739.410073,199.051555 C739.471219,199.105557 739.702213,198.997552 739.742977,199.051555 C739.78374,199.098807 739.865268,199.36207 739.912825,199.389072 C740.116644,199.503827 740.388402,199.422823 740.585426,199.55783 C740.816421,199.719838 741.244439,200.253115 741.597725,200.563631 C741.767574,200.705388 741.930628,200.914649 742.100477,201.063156 C742.358647,201.299418 742.881781,201.481677 742.942927,202.062207 C743.683467,202.284968 744.002783,202.905999 744.457978,203.412275 C745.062639,203.365022 745.083021,203.9118 745.640125,203.9118 C745.80318,204.256067 745.986616,204.573333 746.142877,204.917601 C747.141588,205.09986 747.61037,205.741142 748.507172,205.248368 C748.588699,205.201115 748.479996,205.09986 748.670226,205.086359 C748.819693,205.072859 749.050687,204.823096 749.172979,204.748842 C749.390385,204.620586 749.512676,204.397825 749.852374,204.249317 C749.913519,204.215565 750.144513,204.289819 750.185277,204.249317 C750.375508,204.013055 750.606502,203.385273 751.367424,203.574283 C751.258721,203.412275 750.980169,203.405524 751.034521,203.074758 C751.693534,203.12201 751.544067,202.352471 752.216668,202.399724 C752.372929,202.055456 752.549571,201.744941 752.71942,201.400673 C752.984384,201.353421 753.004766,201.555931 753.222172,201.562681 C753.446373,201.515429 753.358051,201.150911 753.392021,200.901148 C753.704543,200.766141 753.962713,200.604133 754.227677,200.394872 C754.383938,200.273366 754.424702,199.908848 754.737223,199.895347 C754.941042,199.881847 755.14486,199.483576 755.239975,199.227063 C755.688376,199.227063 756.204716,199.281066 756.422123,199.051555 C756.401741,198.855795 756.116395,198.916548 755.91937,198.889546 C755.946546,198.646534 756.422123,198.828793 756.422123,198.552029 C756.578384,198.430523 756.680293,198.248264 756.76182,198.052504 C757.284954,198.17401 757.53633,197.627233 757.930379,197.38422 C758.18855,197.228963 758.351604,197.060204 758.609774,196.709186 C758.718478,196.58093 758.861151,196.486425 758.949472,196.38517 C759.160084,196.101656 759.2552,195.764139 759.459018,195.541377 C759.554133,195.433372 759.914213,195.541377 759.791922,195.20386 L760.974069,195.20386 C761.103154,195.352368 761.157505,195.581879 761.137124,195.872144 C761.347736,195.932897 761.503997,196.088155 761.639876,196.209661 C761.687434,196.250163 761.768961,196.520177 761.816519,196.547178 C761.877664,196.574179 762.101864,196.493175 762.149422,196.547178 C762.203774,196.59443 762.095071,196.830692 762.149422,196.877945 C762.298889,196.999451 762.631793,197.141208 762.828817,197.38422 C762.869581,197.438223 762.767672,197.674485 762.828817,197.721737 C762.862787,197.755489 763.141339,197.843244 763.161721,197.883746 C763.222866,198.012002 763.080193,198.275265 763.161721,198.383271 C763.317981,198.606032 763.535388,198.97055 763.841116,199.227063 C763.963407,199.328319 764.207989,199.287817 764.337074,199.389072 C764.540892,199.537579 764.731123,199.807593 764.676771,200.394872 C765.315403,200.259866 765.199905,200.887647 765.68907,200.901148 C765.716246,201.373672 766.252968,201.555931 766.53152,201.893448 C766.592665,201.967702 766.477168,202.163462 766.53152,202.230965 C766.905187,202.72374 767.373969,203.297519 767.869928,203.743042 C768.066952,203.90505 768.243595,204.10756 768.549323,204.073808 L768.549323,204.580084 C769.086045,204.661088 769.14719,205.214616 769.73147,205.248368 L769.73147,205.747893 C769.982846,206.139413 770.268192,205.423876 770.241016,206.08541 C770.274986,206.29467 770.573919,206.254168 770.573919,206.08541 C770.940793,206.274419 771.131023,206.645688 771.586218,206.760444 C771.871564,206.821197 771.905534,206.618687 771.919121,206.416177 C772.333552,206.49043 772.285995,206.112411 772.761571,206.254168 C773.074093,206.227167 772.870274,205.68714 773.101269,205.579134 C773.345851,205.49138 773.5157,205.322621 773.610815,205.086359 L774.276622,205.086359 C774.657083,204.985104 774.072803,204.823096 774.453265,204.580084 C774.962811,204.70834 774.77258,204.11431 775.28892,204.249317 C775.662588,204.11431 775.710145,203.662037 775.968315,203.412275 C776.274043,203.432526 776.321601,203.203014 776.640916,203.236766 C777.021378,203.149012 776.430304,202.980253 776.810765,202.737241 C777.150463,203.074758 777.605657,202.683238 777.986118,202.568482 C778.482077,202.426725 777.598863,202.31872 777.81627,201.893448 C778.448107,202.075707 778.291846,201.481677 778.828568,201.562681 C779.168266,201.265666 779.215823,200.813394 779.501169,200.563631 C779.752545,200.34087 780.085449,200.685137 780.010715,200.226114 C780.43194,200.205863 780.533849,199.908848 780.846371,200.226114 C780.866753,199.922349 780.642553,199.868346 780.683316,199.55783 C780.873547,199.598332 780.914311,199.260815 781.023014,199.227063 C781.138511,199.173061 781.410269,199.294567 781.525766,199.227063 C781.8247,199.011053 782.08287,198.491276 782.531271,198.221263 C782.918526,197.985001 783.523187,197.249214 784.222964,197.046703 C784.195788,197.242463 784.256934,197.336968 784.392813,197.38422 C784.630601,197.303216 784.372431,197.235713 784.392813,197.046703 L784.392813,196.547178 C784.773274,196.425672 785.085796,196.094905 785.398317,195.872144 C785.500227,195.811391 785.364348,195.716886 785.568166,195.703385 C785.731221,195.696635 786.145652,195.494125 786.240767,195.20386 C786.356264,195.284864 786.437792,195.311866 786.580465,195.365868 C786.634816,195.39287 786.879398,195.325366 786.920162,195.365868 C786.93375,195.386119 786.892986,195.534627 786.920162,195.541377 C787.042453,195.58863 787.422914,195.59538 787.592763,195.703385 C787.647115,195.737137 787.538411,196.0004 787.592763,196.047653 C787.728642,196.155658 787.959636,196.108406 788.102309,196.209661 C788.190631,196.283915 788.068339,196.371669 788.265364,196.37842 C788.421625,196.38517 788.557504,196.574179 788.598268,196.709186 C789.35919,196.574179 789.440717,197.100706 789.94347,197.215462 C790.004615,197.498976 789.814384,197.532728 789.603772,197.546229 C789.630948,197.957999 790.181258,197.586731 790.283167,197.546229 C790.432634,197.674485 790.663628,197.728488 790.962562,197.721737 C790.887828,198.066005 791.071265,198.153759 791.132411,198.383271 C791.288672,198.383271 791.261496,198.180761 791.302259,198.052504 C791.621575,198.390021 792.294176,198.396772 792.307764,199.051555 C792.572728,198.795042 793.07548,199.139309 793.14342,199.55783 C793.62579,199.422823 793.585026,199.794092 793.992663,199.726589 C794.373125,200.118108 794.393506,200.901148 795.331071,200.725639 C795.589242,201.238665 795.283514,201.380422 795.507714,201.73819 C795.677563,201.623434 795.684357,201.346671 796.010466,201.400673 C796.397722,201.299418 796.255049,201.72469 796.513219,201.73819 C796.764595,201.751691 796.886886,202.048706 797.192614,202.062207 C797.416814,202.075707 797.253759,202.291718 797.362462,202.399724 C797.505135,202.541481 797.838039,202.487478 798.041857,202.568482 C798.238882,202.791243 798.103003,202.838496 798.041857,203.074758 C798.551404,203.378523 798.789192,202.9195 799.217211,203.236766 C798.884307,203.689039 799.550114,204.013055 799.550114,203.9118 C799.563702,204.127811 799.203623,204.175063 799.217211,204.411325 C799.679199,204.850097 799.529732,203.743042 800.392564,204.073808 C800.657528,204.850097 799.692787,204.384324 799.726757,204.917601 C799.828666,205.086359 800.107218,205.09311 800.05966,205.423876 C800.202333,205.342872 800.365388,205.268619 800.392564,205.086359 C800.773025,204.985104 800.562413,205.565634 800.90211,205.579134 C801.071959,205.592635 801.67662,205.714141 801.74456,206.08541 C801.873645,205.943653 802.206548,205.984155 802.254106,205.747893 C802.736476,205.828897 802.641361,206.470179 803.089762,206.584935 C804.333055,206.719942 804.774661,206.024657 805.284207,205.423876 C806.024748,205.660138 805.71902,204.850097 806.289712,204.917601 C806.466355,204.910851 806.412003,204.70834 806.459561,204.580084 C806.507118,204.465328 806.921549,204.256067 806.962313,203.9118 C807.641708,204.073808 807.471859,203.412275 808.14446,203.574283 L808.14446,202.899249 C808.681182,202.750741 808.912177,202.217464 809.319813,201.893448 C809.394547,201.839445 809.591571,201.954201 809.659511,201.893448 C810.08753,201.582932 810.467991,201.076657 811.011507,200.901148 C811.357998,200.847145 810.760131,200.442125 811.351204,200.394872 C811.806399,199.861595 812.057775,200.921399 812.526558,200.394872 C812.934195,200.226114 811.826781,199.719838 812.356709,199.389072 C812.77114,199.375571 812.873049,199.078556 813.192365,199.389072 C813.335038,199.240564 813.382595,199.011053 813.369007,198.714038 C813.586414,198.619533 813.83779,198.680286 814.041608,198.552029 C814.238633,198.423773 814.408482,197.735238 814.721003,198.221263 C815.033525,198.194261 814.816119,197.647484 815.053907,197.546229 C815.339253,197.552979 815.481926,197.424722 815.556659,197.215462 C816.174909,197.323467 816.208878,196.850943 816.738806,196.877945 C816.895067,196.803691 817.03774,196.520177 817.241559,196.38517 C817.309498,196.337918 817.533698,196.432422 817.581256,196.37842 C817.771487,196.148908 818.158742,195.811391 818.926458,195.872144 C818.933252,196.040903 819.130277,196.007151 819.266156,196.047653 C819.381653,196.98595 820.040666,197.38422 820.441509,198.052504 C820.502654,198.336018 820.312424,198.36977 820.115399,198.383271 C820.298836,198.673535 820.461891,198.36302 820.774412,198.552029 C820.774412,198.552029 821.052964,198.943549 821.283959,199.227063 C821.657626,199.672586 822.031293,200.077606 821.793505,200.725639 C822.269081,200.867396 822.228318,200.489377 822.635955,200.563631 C822.737864,200.887647 822.737864,201.414174 822.635955,201.73819 C822.737864,201.873197 823.417259,202.257967 823.47161,201.893448 C823.824896,201.954201 823.804514,202.352471 824.144211,202.399724 C824.212151,202.683238 824.02192,202.71699 823.811308,202.737241 C823.845278,203.014005 824.259708,202.818245 824.483909,202.899249 C824.626582,202.960002 824.653758,203.365022 824.993455,203.236766 C825.210861,203.803795 825.598116,204.202065 826.168808,204.411325 C826.141632,204.553082 826.005753,204.580084 826.005753,204.748842 C825.978578,205.005355 826.386215,204.809595 826.508506,204.917601 C826.569651,204.958103 826.454154,205.201115 826.508506,205.248368 C826.671561,205.383374 826.719118,205.423876 826.841409,205.579134 C826.888967,205.639887 827.160725,205.70064 827.181107,205.747893 C827.22187,205.828897 827.126755,206.017906 827.181107,206.08541 C827.473247,206.463429 827.901265,206.665939 828.03035,207.097961 C828.329284,207.097961 829.001885,207.543484 829.212498,207.097961 C829.375552,207.199216 829.382346,207.46923 829.71525,207.421977 C829.93945,207.374725 829.844335,207.010207 829.878305,206.760444 C830.367469,206.821197 830.476172,206.28117 830.720754,206.08541 C830.775106,206.038157 831.012894,206.139413 831.053658,206.08541 C831.162361,205.957153 831.325416,205.579134 831.55641,205.423876 C831.637938,205.363123 831.81458,205.444127 831.902902,205.423876 C832.086338,205.349623 832.065956,204.998605 832.405654,205.086359 C832.718176,205.059358 832.507563,204.519331 832.745351,204.411325 C833.526656,204.580084 833.302455,203.736291 834.083759,203.9118 C834.260402,203.9118 834.212844,203.695789 834.260402,203.574283 C834.341929,203.358272 834.586512,203.371773 834.6001,202.899249 C835.041706,202.737241 835.163997,202.244466 835.605604,202.062207 C835.469725,201.717939 835.816217,201.474927 835.945302,201.231915 C836.033623,201.042905 836.020035,200.482627 836.448054,200.563631 L836.448054,199.895347 C836.964394,199.794092 837.324473,199.530829 837.793256,199.389072 C838.132953,199.112308 838.581354,198.943549 838.635706,198.383271 C839.260749,198.511527 839.525713,197.863495 839.987702,197.883746 C840.408926,197.897246 840.504042,198.228013 841,198.383271 C841,198.781541 840.70786,198.882796 840.830151,199.389072 C840.544805,199.598332 840.334193,199.503827 840.15755,199.726589 C839.885792,200.064106 840.082817,200.502878 839.478155,200.563631 C839.172428,200.590632 839.376246,201.13066 839.145252,201.231915 C838.554178,201.52893 838.098984,201.981203 837.793256,202.568482 C837.24974,202.642736 837.202182,203.209765 836.611109,203.236766 C836.033623,203.614785 835.918126,204.438327 835.102852,204.580084 C834.939797,205.039107 834.593306,205.29562 834.423457,205.747893 C833.907117,205.990905 833.458716,206.362174 833.078255,206.760444 C832.874436,206.969705 832.786115,207.232968 832.582297,207.421977 C832.371684,207.604237 832.120308,207.590736 831.902902,207.759494 C831.705877,207.914752 831.59038,208.110512 831.393355,208.25902 C831.237095,208.387276 831.060452,208.643789 830.890603,208.772046 C830.652815,208.920553 830.448996,208.967805 830.211208,209.096062 C829.919068,209.25132 829.694868,209.474081 829.538607,209.771096 C829.124176,209.548335 829.008679,210.432629 828.866006,209.933104 C828.668982,210.007358 828.675776,210.304373 828.533103,210.43938 C828.329284,210.614889 827.711035,210.43938 827.853708,211.107664 C827.228664,210.817399 827.174313,211.755696 826.678354,211.775947 C826.460948,211.789448 826.460948,212.045961 826.345451,212.113464 C826.202778,212.174217 825.96499,212.045961 825.835905,212.113464 C825.693232,212.180968 825.67285,212.552237 825.333152,212.450981 C825.353534,212.133715 824.993455,212.241721 824.823606,212.113464 C824.674139,211.978458 824.708109,211.451931 824.31406,211.607189 C824.402381,210.581137 823.634665,210.392127 823.138707,209.933104 C823.077561,209.150065 823.437641,208.981306 822.975652,208.589786 C822.771833,208.616788 822.826185,208.900302 822.799009,209.096062 C822.500076,209.028559 822.493282,208.792297 822.296257,208.589786 C822.160378,208.46153 822.106026,208.232018 821.793505,208.25902 C821.820681,208.06326 821.759535,207.962005 821.616862,207.928253 C821.623656,207.597486 822.078851,207.712242 821.963354,207.259969 C821.392662,206.949454 821.936178,207.300471 821.616862,207.597486 Z" id="Fill-1-Copy-2"></path>
        </g>
    </g>
</svg>