<?xml version="1.0" encoding="UTF-8"?>
<svg width="273px" height="21px" viewBox="0 0 273 21" version="1.1" xmlns="http://www.w3.org/2000/svg" xmlns:xlink="http://www.w3.org/1999/xlink">
    <!-- Generator: Sketch 48.1 (47250) - http://www.bohemiancoding.com/sketch -->
    <title>Fill 1 Copy</title>
    <desc>Created with Sketch.</desc>
    <defs></defs>
    <g id="BB-Landing-Page" stroke="none" stroke-width="1" fill="none" fill-rule="evenodd" transform="translate(-112.000000, -2454.000000)">
        <path d="M282.227926,2460.06316 C282.295865,2459.11136 281.582501,2459.82014 282.227926,2460.06316 Z M284.748481,2466.75949 L285.088179,2466.75949 L285.088179,2466.25997 L284.748481,2466.25997 L284.748481,2466.75949 Z M298.064622,2460.06316 C298.451877,2460.20491 298.451877,2459.21261 298.227677,2459.72564 C298.241265,2459.9619 297.738513,2459.9214 298.064622,2460.06316 Z M333.10102,2460.89345 C333.019492,2461.14321 332.849644,2461.32547 332.768116,2461.56848 C333.433923,2461.77774 333.671712,2460.9812 333.10102,2460.89345 Z M341.022765,2465.25417 C341.471166,2465.30817 341.573075,2465.01791 341.532311,2464.57913 C341.08391,2464.52513 341.090704,2464.9369 341.022765,2465.25417 Z M342.707664,2468.43358 C342.836749,2468.56184 343.624848,2468.37958 343.040568,2468.09606 C343.128889,2468.23782 342.639725,2468.35933 342.707664,2468.43358 Z M343.040568,2465.76044 L343.726757,2465.76044 L343.726757,2465.41618 L343.040568,2465.41618 L343.040568,2465.76044 Z M345.74456,2466.09796 C345.74456,2466.25997 345.608681,2466.29372 345.574711,2466.42198 C345.832881,2466.40173 346.152197,2466.44898 346.070669,2466.09796 L345.74456,2466.09796 Z M355.011507,2461.06221 L355.684108,2461.06221 L355.684108,2460.40067 C355.12021,2460.28592 355.065859,2460.68419 355.011507,2461.06221 Z M364.115399,2460.56268 C364.427921,2460.55593 364.461891,2460.69769 364.27166,2460.89345 C364.692885,2460.92045 365.086934,2460.9272 365.283959,2460.73819 L365.283959,2460.06316 L364.951055,2460.06316 C364.489066,2459.9349 365.066552,2460.85295 364.611358,2460.73819 C364.665709,2460.52893 364.128987,2460.15766 364.115399,2460.56268 Z M366.799009,2466.25997 C366.982446,2466.57048 367.159089,2466.19922 367.47161,2466.09796 C367.777338,2465.98996 368.585818,2466.09796 368.483909,2465.58494 C367.953981,2465.26767 367.152295,2465.8617 366.799009,2466.25997 Z M368.144211,2464.42388 C368.354824,2464.26862 368.877958,2463.59358 368.483909,2463.41133 C368.286884,2463.89735 367.777338,2463.35057 367.47161,2463.41133 C367.240616,2463.45858 367.193058,2463.67459 366.975652,2463.74884 C366.744658,2463.53283 366.343815,2463.52608 366.296257,2463.9176 C366.866949,2463.9581 367.104737,2464.33612 367.811308,2464.24837 C367.600695,2464.78839 368.361618,2464.38337 368.144211,2464.91665 C368.456733,2464.88965 368.708109,2464.8019 368.823606,2464.57913 C368.57223,2464.55213 368.198563,2464.63989 368.144211,2464.42388 Z M370.678354,2466.09796 L370.678354,2466.42198 C370.691942,2466.52998 370.698736,2466.62449 370.841409,2466.59749 C370.848203,2466.37472 371.140343,2466.43548 371.181107,2466.25997 C370.950112,2466.26672 370.814233,2466.17897 370.678354,2466.09796 Z M375.223507,2465.41618 C375.440913,2465.96295 374.679991,2465.54443 374.890603,2466.09796 C375.420531,2466.15871 375.855344,2465.55793 375.223507,2465.41618 Z M381.120655,2461.06221 C381.426383,2461.03521 381.969899,2461.23772 381.793256,2460.73819 C381.419589,2460.68419 381.168212,2460.77194 381.120655,2461.06221 Z M356.526558,2461.06221 L356.526558,2460.73819 C356.112127,2460.47493 356.023805,2461.30522 356.356709,2461.23097 C356.363503,2461.13646 356.377091,2461.04196 356.526558,2461.06221 Z M365.616862,2466.59749 C365.11411,2466.36797 364.767618,2465.88195 365.11411,2465.25417 C364.577388,2465.04491 364.998613,2465.7942 364.441509,2465.58494 C364.128987,2465.45668 364.536624,2465.21367 364.441509,2465.08541 C364.353187,2464.9639 363.999902,2464.94365 363.768908,2464.74789 C363.619441,2464.62639 363.578677,2464.38337 363.42921,2464.24837 C363.137071,2463.97835 362.647906,2463.70159 362.4305,2463.41133 C362.369354,2463.33707 362.471263,2463.15481 362.4305,2463.07381 C362.199505,2462.73629 361.635608,2462.49328 361.744311,2462.07476 C361.995687,2462.16926 362.165536,2462.33127 362.253857,2462.57428 C362.627524,2462.54728 362.029657,2462.15576 362.253857,2461.73724 C362.573173,2461.66299 362.681876,2461.37272 363.096307,2461.39972 C362.926458,2460.93395 362.382942,2461.44698 362.084008,2461.39972 C361.683165,2461.45373 361.771487,2461.987 361.241559,2461.89925 C360.698043,2461.22421 360.079793,2460.60993 359.38681,2460.06316 C358.972379,2460.37367 358.279397,2460.41417 358.041608,2460.89345 C357.104043,2461.03521 356.078157,2461.06221 355.853957,2461.89925 C355.15418,2461.58873 355.106622,2462.34477 354.841658,2462.57428 C354.780513,2462.63504 354.563106,2462.52028 354.501961,2462.57428 C354.101118,2462.87805 353.679893,2463.58008 352.98691,2463.74884 C352.878207,2464.19436 352.50454,2464.38337 352.307515,2464.74789 C352.062933,2464.83565 351.88629,2464.99766 351.641708,2465.08541 C351.295217,2465.10566 351.295217,2465.57818 351.132162,2465.76044 C351.084604,2465.81445 350.846816,2465.69969 350.799258,2465.76044 C350.724525,2465.84145 350.710937,2466.17897 350.622616,2466.25997 C350.520706,2466.35447 350.242154,2466.36122 350.119863,2466.42198 C350.031542,2466.46923 350.140245,2466.58399 349.950015,2466.59749 C349.800548,2466.60424 349.026037,2467.34002 348.774661,2467.58979 C348.163206,2468.19732 347.531369,2468.8521 346.913119,2469.60814 C346.627773,2469.97266 346.186167,2470.23592 346.254106,2470.77595 C345.629063,2470.66119 345.601887,2471.14047 345.071959,2471.11346 C344.691498,2471.25522 344.698292,2470.76245 344.562413,2470.60719 C344.399358,2470.43168 344.195539,2470.26292 344.05966,2470.10766 C343.624848,2469.60814 343.421029,2469.03436 342.54461,2468.9331 C342.54461,2468.60234 342.082621,2468.72384 342.204912,2468.26482 C341.858421,2468.36608 341.838039,2468.02181 341.70216,2467.9273 C341.47796,2467.79905 341.08391,2468.04206 341.192614,2467.58979 C341.674984,2467.11051 341.722542,2467.9273 342.381555,2467.77205 C342.762016,2467.81255 342.558197,2467.27927 342.884307,2467.25902 C342.938659,2467.15101 342.456288,2467.00926 342.381555,2467.09701 C342.225294,2467.23877 342.211706,2467.11726 341.872009,2467.09701 C341.763305,2467.09026 341.267347,2467.16451 341.192614,2467.09701 C341.015971,2466.91475 341.049941,2467.13076 340.683067,2467.09701 C340.370546,2467.06326 340.037642,2466.83375 339.677563,2466.92825 C339.50092,2466.773 339.623211,2466.31397 339.174811,2466.42198 C339.134047,2466.37472 339.419393,2466.15196 339.331071,2466.09796 C339.324278,2466.07771 339.004962,2466.09796 339.004962,2466.09796 C339.011756,2465.9292 339.201986,2465.9562 339.331071,2465.92245 C339.269926,2465.9022 339.222368,2465.61194 339.174811,2465.58494 C338.957404,2465.51068 338.875877,2465.76044 338.835113,2465.76044 C338.706028,2465.73344 338.651677,2465.61869 338.495416,2465.58494 C338.019839,2465.48368 337.69373,2465.43643 337.14342,2465.25417 C337.007541,2464.90315 336.457231,2464.59939 336.810516,2464.24837 C336.491201,2464.26862 336.246618,2464.35637 336.137915,2464.57913 C335.730278,2464.49138 335.8186,2464.03911 335.635163,2463.74884 C335.444932,2463.43833 335.132411,2463.23582 334.962562,2462.9118 C334.378282,2463.04681 334.310343,2462.66204 333.780415,2462.74304 C333.753239,2462.32452 334.045379,2462.21651 334.120112,2461.89925 C333.447511,2461.73724 333.603772,2462.41227 332.937965,2462.23677 C332.815674,2462.12201 332.706971,2462.04776 332.598268,2461.89925 C332.577886,2461.879 332.462389,2461.57523 332.435213,2461.56848 C332.136279,2461.44023 331.551999,2461.81824 331.762612,2461.06221 C331.001689,2461.30522 330.458173,2460.9677 330.070918,2460.40067 C329.880688,2460.53568 329.622518,2460.61668 329.235263,2460.56268 C329.24885,2459.9889 328.379225,2460.29942 328.392813,2459.72564 C328.290904,2459.90115 328.059909,2459.79989 327.890061,2459.90115 C327.794945,2459.9349 327.618303,2460.20491 327.550363,2460.23191 C326.993259,2460.44118 326.279894,2460.18466 326.198367,2460.89345 C325.709203,2460.87995 325.417063,2461.02845 325.186069,2461.39972 C325.01622,2461.68324 324.825989,2461.61573 324.520262,2461.89925 C324.438734,2461.9735 324.418352,2462.18276 324.343619,2462.23677 C324.200946,2462.35827 323.976746,2462.28402 323.840867,2462.41227 C323.759339,2462.47303 323.752545,2462.68229 323.671018,2462.74304 C323.528345,2462.8578 323.297351,2462.78354 323.161472,2462.9118 C322.855744,2463.19531 322.59078,2463.88385 321.81627,2463.9176 C321.578481,2463.9851 321.7823,2464.40363 321.653215,2464.57913 C321.660009,2464.57238 321.19802,2464.71414 320.97382,2464.91665 C320.803971,2465.07866 320.783589,2465.49718 320.301219,2465.41618 C320.185722,2465.54443 320.104194,2465.64569 319.968315,2465.76044 C319.764497,2465.9022 319.424799,2466.35447 319.125866,2466.59749 C318.989987,2466.69874 318.752198,2466.67174 318.616319,2466.75949 C318.494028,2466.827 318.378531,2467.02276 318.276622,2467.09701 C317.882573,2467.36703 317.311881,2467.52903 316.93142,2467.9273 C316.877068,2467.98806 316.985772,2468.20407 316.93142,2468.26482 C316.877068,2468.31882 316.652868,2468.21082 316.598516,2468.26482 C316.455843,2468.38633 316.401492,2468.65634 316.258819,2468.7711 C315.946297,2469.00736 315.436751,2469.20987 315.083466,2469.60814 C314.967969,2469.72964 315.02232,2469.97941 314.913617,2470.10766 C314.79812,2470.22917 314.50598,2470.15492 314.404071,2470.27642 C314.17987,2470.51268 314.145901,2470.8502 313.901318,2471.11346 C313.846967,2471.17422 313.615973,2471.05946 313.561621,2471.11346 C313.425742,2471.24847 313.548033,2471.66024 313.221924,2471.61299 C312.494971,2471.45098 312.094128,2471.22822 312.379474,2470.44518 L311.537024,2470.44518 C311.448703,2470.34393 311.448703,2470.22917 311.373969,2470.10766 C311.319618,2470.03341 311.23809,2469.97941 311.210914,2469.94566 C311.01389,2469.62839 310.993508,2468.99386 310.361671,2468.9331 C310.449992,2468.68334 310.613047,2468.51458 310.694574,2468.26482 C310.17144,2468.14331 310.490756,2468.84535 309.852125,2468.60234 C309.526015,2468.11631 309.295021,2468.16357 309.519221,2467.42778 C309.546397,2467.06326 308.921353,2467.35352 308.676771,2467.25902 C309.009675,2466.91475 308.608832,2466.935 308.337074,2466.75949 C308.187607,2466.46248 307.929437,2466.26672 307.841116,2465.92245 C307.48783,2465.76044 307.168515,2465.57818 306.828817,2465.41618 C306.97149,2464.8829 306.570647,2464.8964 306.319271,2464.74789 C306.346447,2464.55213 306.631793,2464.60614 306.828817,2464.57913 C306.726908,2464.17411 306.169804,2464.22812 306.319271,2463.58008 C305.64667,2463.85685 305.802931,2463.85685 305.137124,2463.58008 C305.089566,2463.31007 305.300178,2463.28982 305.306972,2463.07381 C305.09636,2462.49328 304.817808,2462.77004 304.464523,2462.57428 C304.328644,2462.16251 304.02971,2461.88575 303.791922,2461.56848 C303.554133,2461.25797 303.173672,2461.0217 303.119321,2460.56268 C302.276871,2460.19141 301.957555,2460.32642 301.08793,2460.56268 C300.721056,2460.69769 300.673499,2461.14996 300.422123,2461.39972 C300.109601,2461.40647 300.014486,2461.71024 299.749522,2461.89925 C299.566085,2462.03426 299.239975,2462.10851 299.070127,2462.23677 C298.941042,2462.35152 298.873102,2462.46628 298.737223,2462.57428 C298.513023,2462.73629 298.173325,2462.9523 298.064622,2463.41133 C297.296906,2463.59358 296.800948,2464.04586 296.542778,2464.74789 C296.243844,2464.72764 296.189492,2464.95715 295.87697,2464.91665 C295.36063,2465.47018 294.891848,2466.06421 294.355126,2466.59749 C294.096956,2466.84725 293.77764,2467.02276 293.512676,2467.25902 C293.383591,2467.38053 293.322445,2467.65729 293.172979,2467.77205 C293.071069,2467.8463 292.785723,2467.82605 292.670226,2467.9273 C291.854952,2468.66984 291.250291,2469.64864 290.305932,2470.27642 C289.918677,2470.55319 289.905089,2471.20797 289.137373,2471.11346 C288.831645,2470.85695 288.614238,2470.50593 288.621032,2469.94566 C288.478359,2469.64864 288.104692,2469.56764 287.608734,2469.60814 C287.500031,2469.35838 287.269036,2469.11536 287.112776,2468.9331 C286.949721,2468.76435 286.50132,2468.66309 286.610023,2468.26482 C286.229562,2468.35933 286.358647,2467.94755 286.100477,2467.9273 C285.828719,2467.9138 285.808337,2467.8193 285.597725,2467.77205 C285.522991,2467.44803 285.115354,2467.46153 285.258027,2466.92825 C284.748481,2467.04301 284.639778,2466.75949 284.245729,2466.75949 C284.177789,2465.9292 283.179079,2466.03721 283.070376,2465.25417 C283.00923,2464.97065 283.199461,2464.94365 283.410073,2464.91665 C283.260606,2464.42388 282.982054,2465.13941 282.560829,2464.91665 C282.350217,2464.08636 280.563408,2464.05261 281.045779,2463.07381 C280.692493,2463.09406 280.074244,2463.39107 280.040274,2462.74304 C280.026686,2462.59453 279.646225,2462.46628 279.537522,2462.41227 C279.360879,2462.31102 279.320116,2462.16926 279.197824,2462.07476 C278.898891,2461.8655 278.409726,2461.8925 278.518429,2461.39972 C278.321405,2461.42673 278.212702,2461.36597 278.178732,2461.23097 C277.737125,2461.29172 276.521008,2461.05546 276.500626,2461.56848 C276.480245,2461.77774 276.28322,2461.64949 276.160929,2461.73724 C275.943523,2461.8925 275.76688,2462.19626 275.488328,2462.41227 C275.189394,2462.63504 274.9584,2462.66879 274.645878,2463.07381 C274.523587,2463.23582 274.435266,2463.28307 274.306181,2463.41133 C274.054805,2463.67459 273.538465,2463.8366 273.626786,2464.24837 C273.028918,2464.53863 272.227232,2464.63989 272.118529,2465.41618 C271.554631,2465.63894 270.970352,2465.84145 270.766533,2466.42198 C270.277369,2466.38148 270.250193,2466.8 269.754235,2466.75949 C269.135985,2467.36703 268.422621,2467.8868 267.566583,2468.26482 C267.254061,2468.29182 267.45788,2468.83185 267.226885,2468.9331 C267.104594,2468.99386 266.846424,2468.85885 266.724133,2468.9331 C266.540697,2469.05461 266.540697,2469.31112 266.384436,2469.43938 C266.330084,2469.48663 266.09909,2469.38538 266.051532,2469.43938 C265.908859,2469.61489 265.494428,2469.68239 265.046028,2469.94566 C264.849003,2470.04691 264.842209,2470.13466 264.70633,2470.27642 C264.441366,2470.54644 264.162814,2470.60719 263.517389,2470.77595 C263.476625,2470.78945 263.517389,2470.93121 263.361128,2470.94471 C263.130134,2470.95821 262.89914,2470.93121 262.681733,2470.94471 C262.450739,2470.72869 262.518678,2470.22242 262.518678,2469.77015 C262.559442,2469.39213 262.02272,2469.58789 262.009132,2469.26387 C261.914017,2468.9061 262.328448,2469.03436 262.34883,2468.7711 C262.233333,2468.35257 261.900429,2469.08161 261.50638,2468.9331 C261.424853,2468.62259 261.02401,2468.63609 261.166682,2468.09606 C260.813397,2468.46058 260.66393,2467.88005 260.154384,2467.9273 C260.079651,2467.61004 259.787511,2467.50878 259.814687,2467.09701 C259.726365,2466.7865 259.379874,2467.17127 259.311934,2467.09701 C259.176055,2466.935 259.162467,2466.881 258.979031,2466.75949 C258.815976,2466.65824 258.605364,2466.42873 258.30643,2466.25997 C258.245284,2466.21947 258.007496,2466.30722 257.966732,2466.25997 C257.919175,2466.19922 257.851235,2465.9562 257.796884,2465.92245 C257.742532,2465.88195 257.504744,2465.97645 257.457186,2465.92245 C257.416422,2465.86845 257.348483,2465.61869 257.287337,2465.58494 C257.232986,2465.54443 257.001991,2465.63894 256.94764,2465.58494 C256.866112,2465.48368 256.499239,2464.76814 256.111984,2464.74789 C255.921753,2464.74114 255.446177,2464.30912 255.446177,2463.9176 C255.174419,2463.78259 254.834722,2463.8636 254.596933,2463.74884 C254.515406,2463.70834 254.48823,2463.43833 254.427085,2463.41133 C254.345557,2463.37082 254.148533,2463.46533 254.087387,2463.41133 C253.965096,2463.31007 253.883569,2462.9928 253.754484,2462.9118 C253.503107,2462.77004 253.176998,2462.9253 252.912034,2462.74304 C252.816919,2462.67554 252.864476,2462.29752 252.742185,2462.23677 C251.845384,2462.18276 251.648359,2461.42673 250.894231,2461.23097 C250.581709,2460.86645 250.384685,2460.39392 249.875138,2460.23191 C249.216125,2460.13066 248.998719,2460.47493 248.699785,2460.73819 C248.38047,2460.69094 248.115505,2460.73144 247.857335,2460.89345 C247.490462,2461.14321 246.91977,2461.52798 246.675188,2461.73724 C246.410224,2461.9735 246.077321,2462.17601 246.002587,2462.57428 C245.927854,2462.61479 245.730829,2462.52028 245.66289,2462.57428 C245.228077,2462.95905 244.942731,2463.47883 244.487536,2463.9176 C244.378833,2464.01886 244.093487,2463.9716 243.984784,2464.08636 C243.869287,2464.19436 243.937227,2464.48463 243.814935,2464.57913 C243.75379,2464.63314 243.522796,2464.52513 243.475238,2464.57913 C243.46165,2464.60614 243.502414,2464.74114 243.475238,2464.74789 C243.414092,2464.77489 243.183098,2464.70064 243.13554,2464.74789 C243.020043,2464.88965 242.938516,2465.24067 242.632788,2465.25417 C242.537673,2465.25417 242.197975,2465.55118 241.953393,2465.76044 C241.905836,2465.7942 241.837896,2466.07096 241.797132,2466.09796 C241.715605,2466.12496 241.518581,2466.04396 241.457435,2466.09796 C241.396289,2466.13846 241.511787,2466.38148 241.457435,2466.42198 C241.321556,2466.53673 241.131325,2466.35447 241.117737,2466.59749 C241.10415,2466.79325 240.642161,2466.91475 240.445136,2467.09701 C240.302464,2467.22527 240.159791,2467.40078 239.93559,2467.58979 C239.901621,2467.63029 239.623069,2467.73154 239.595893,2467.77205 C239.575511,2467.81255 239.64345,2468.06906 239.595893,2468.09606 C239.398868,2468.23782 239.038789,2468.05556 238.923292,2468.26482 C238.631152,2468.30532 238.542831,2468.55509 238.583594,2468.9331 C237.632441,2468.76435 237.720763,2469.62839 236.905489,2469.60814 L236.905489,2470.27642 C236.035863,2470.13466 236.164948,2470.98521 235.723342,2471.27547 L234.880892,2471.27547 C234.60234,2469.94566 233.399811,2469.51363 232.69324,2468.60234 C231.91873,2468.48083 231.477123,2468.05556 230.845286,2467.58979 C230.471619,2467.33327 230.002836,2467.17127 229.826193,2466.75949 C229.45932,2466.8 229.23512,2466.75949 228.983744,2466.59749 C228.963362,2466.57724 228.786719,2466.41523 228.813895,2466.42198 C228.542137,2466.32747 228.039385,2466.37472 227.80839,2466.25997 C227.624954,2466.16546 227.65213,2465.84145 227.298844,2465.76044 C227.224111,2465.73344 227.027086,2465.8077 226.965941,2465.76044 C226.48357,2465.40268 226.218606,2464.54538 225.45089,2464.57913 C225.199514,2464.20787 224.880198,2463.85685 224.431798,2463.58008 C224.357064,2463.53283 224.3163,2463.43833 224.268743,2463.41133 C224.146452,2463.33707 223.895076,2463.33707 223.76599,2463.24932 C223.711639,2463.20206 223.650493,2462.9388 223.596142,2462.9118 C223.365147,2462.80379 223.202093,2462.77679 222.923541,2462.57428 C222.672165,2462.39877 222.21697,2462.29077 222.25094,2461.89925 C222.053915,2461.92625 221.952006,2461.87225 221.911242,2461.73724 C220.518483,2461.41322 220.572834,2462.52703 219.383893,2462.41227 C219.071371,2462.43253 219.27519,2462.9793 219.044196,2463.07381 C218.222128,2462.9928 218.303655,2463.78934 217.529145,2463.74884 C217.182653,2463.69484 217.406854,2464.24162 217.196241,2464.42388 C217.169066,2464.43738 217.03998,2464.39012 217.026393,2464.42388 C216.917689,2464.55213 216.788604,2464.57238 216.693489,2464.74789 C216.639137,2464.8289 216.584786,2465.01791 216.516846,2465.08541 C216.387761,2465.22042 216.177149,2465.13266 216.014094,2465.25417 C215.864627,2465.36217 215.640427,2465.99671 215.171644,2465.92245 C214.981414,2466.29372 214.607747,2466.47598 214.492249,2466.92825 C213.955527,2467.00251 213.90797,2467.55603 213.316896,2467.58979 C213.337278,2467.89355 213.113078,2467.94755 213.153841,2468.26482 C212.84132,2468.24457 212.793762,2468.46733 212.474446,2468.43358 C212.379331,2469.20987 211.564057,2469.45288 211.12245,2469.94566 C210.952602,2470.13466 210.96619,2470.38443 210.789547,2470.60719 C210.64008,2470.8097 210.429468,2470.93796 210.286795,2471.11346 C210.110152,2471.32272 209.953891,2471.43748 209.784042,2471.61299 C209.729691,2471.66699 209.838394,2471.90325 209.784042,2471.95051 C209.634576,2472.05851 209.396787,2471.99101 209.274496,2472.11251 C209.152205,2472.23402 209.158999,2472.60529 208.934799,2472.61204 C208.425252,2472.64579 208.031203,2473.90136 207.249899,2473.96211 C206.896614,2474.07011 207.018905,2473.76635 206.916996,2473.62459 C206.842262,2473.52334 206.638444,2473.38158 206.577298,2473.29382 C206.475389,2473.11832 206.502565,2472.94956 206.414243,2472.78755 C206.359892,2472.69979 206.244395,2472.81455 206.237601,2472.61204 C206.224013,2472.33528 205.748436,2472.28127 205.734848,2471.95051 C205.721261,2471.721 205.198126,2471.59274 205.232096,2471.11346 C204.926369,2470.95821 204.736138,2470.70844 204.389646,2470.60719 C204.410028,2470.31017 204.185828,2470.25617 204.219798,2469.94566 C203.907276,2469.81065 203.649106,2469.64189 203.384142,2469.43938 C203.146354,2469.25712 202.901772,2468.9196 202.704747,2468.7711 C202.344668,2468.48758 201.848709,2468.35257 201.5226,2467.9273 C201.427485,2467.8058 201.339163,2467.47503 201.019848,2467.42778 C201.074199,2467.44128 200.924732,2467.69779 200.849999,2467.58979 C200.720914,2467.44128 200.483126,2467.26577 200.177398,2467.09701 C199.783349,2466.87425 199.484415,2466.50973 199.002045,2466.42198 C198.696317,2465.60519 197.935394,2465.25417 197.650049,2464.42388 C197.011417,2464.26862 196.787217,2463.70159 196.304847,2463.24932 C196.243701,2463.18856 196.026295,2463.29657 195.965149,2463.24932 C195.917591,2463.20206 196.026295,2462.9523 195.965149,2462.9118 C195.822476,2462.80379 195.60507,2462.8173 195.462397,2462.74304 C195.238197,2462.62829 195.156669,2462.56753 194.613153,2462.57428 C194.511244,2462.57428 194.001698,2462.67554 193.940552,2462.74304 C193.926964,2462.76329 193.967728,2462.8983 193.940552,2462.9118 C193.879407,2462.9388 193.648412,2462.8578 193.607649,2462.9118 C193.587267,2462.93205 193.621237,2463.06031 193.607649,2463.07381 C193.539709,2463.10081 193.308715,2463.02656 193.267951,2463.07381 C193.254363,2463.10081 193.288333,2463.23582 193.267951,2463.24932 C193.200012,2463.28307 192.969017,2463.19531 192.935048,2463.24932 C192.914666,2463.26282 192.948636,2463.39782 192.935048,2463.41133 C192.873902,2463.43833 192.62932,2463.36407 192.59535,2463.41133 C192.581762,2463.43158 192.622526,2463.56658 192.59535,2463.58008 C192.398326,2463.69484 192.092598,2463.79609 191.922749,2463.9176 C191.732519,2464.04586 191.576258,2464.26862 191.419997,2464.42388 C191.243354,2464.56563 191.073505,2464.78839 190.910451,2464.91665 C190.856099,2464.9639 190.618311,2464.86265 190.570753,2464.91665 C190.455256,2465.05841 190.373729,2465.40943 190.068001,2465.41618 C189.667158,2465.44318 189.293491,2465.99671 188.892648,2466.25997 C188.790738,2466.31397 188.919823,2466.41523 188.716005,2466.42198 C188.396689,2466.43548 187.873555,2467.17127 187.533858,2467.42778 C187.330039,2467.58979 187.105839,2467.60329 186.861257,2467.77205 C186.664232,2467.89355 186.548735,2468.11631 186.365298,2468.26482 C185.950868,2468.58884 185.339412,2468.71034 185.353,2469.26387 C184.904599,2469.12886 184.741545,2469.37188 184.51055,2469.60814 C184.313526,2469.79715 184.109707,2470.00641 183.837949,2470.27642 C183.654513,2470.45193 183.51184,2470.63419 182.9955,2470.60719 C182.737329,2470.9177 182.526717,2471.31597 182.15305,2471.61299 C182.051141,2471.69399 182.173432,2471.76825 181.983201,2471.775 C181.650298,2471.79525 181.79297,2472.08551 181.63671,2472.28802 C181.473655,2472.51078 181.059224,2472.73355 180.631205,2472.95631 C179.523791,2472.80105 179.455852,2471.65349 178.9531,2470.94471 C178.756075,2470.66794 178.504699,2470.50593 178.273705,2470.27642 C178.063092,2470.06041 177.770952,2469.8174 177.601104,2469.60814 C177.553546,2469.54739 177.655455,2469.31787 177.601104,2469.26387 C177.438049,2469.14236 177.397285,2469.09511 177.261406,2468.9331 C176.548041,2468.06906 175.71918,2467.19827 174.903906,2466.42198 C174.801996,2466.33422 174.659323,2466.15871 174.564208,2466.09796 C174.455505,2466.00346 174.176953,2466.02371 174.061456,2465.92245 C173.932371,2465.81445 174.013898,2465.54443 173.898401,2465.41618 C173.84405,2465.36217 173.606261,2465.47693 173.558704,2465.41618 C173.320915,2465.13266 172.784193,2464.38337 172.206708,2464.24837 C172.118386,2463.9986 171.962126,2463.8231 171.873804,2463.58008 C171.602046,2463.62059 171.296318,2463.52608 171.031354,2463.58008 C170.650893,2463.64759 170.746009,2463.76234 170.528602,2463.9176 C170.440281,2463.9716 170.093789,2463.9986 170.012262,2464.08636 C169.747298,2464.35637 169.747298,2464.8019 169.50951,2465.08541 C169.061109,2465.08541 169.067903,2465.54443 168.843703,2465.76044 C168.782557,2465.81445 168.565151,2465.69969 168.504005,2465.76044 C168.402096,2465.8482 168.544769,2466.39498 168.001253,2466.25997 C168.143926,2466.69874 167.688731,2466.55698 167.661555,2466.92825 C167.641174,2467.24552 167.179185,2466.99576 167.158803,2467.42778 C167.158803,2467.48178 166.866663,2467.72479 166.819106,2467.77205 C166.710403,2467.8598 166.370705,2468.22432 166.139711,2468.43358 C165.997038,2468.56859 165.854365,2468.70359 165.636959,2468.7711 C165.636959,2469.32462 165.093443,2469.33812 165.134206,2469.94566 C164.672218,2469.8174 164.794509,2470.27642 164.461605,2470.27642 C164.230611,2471.04596 163.693889,2471.51848 163.109609,2471.95051 C163.116403,2472.23402 162.987318,2472.38253 162.769912,2472.45003 L162.769912,2473.29382 C162.45739,2473.53009 161.900286,2473.53684 161.771201,2473.96211 C161.445092,2473.88785 161.343182,2473.59759 160.921958,2473.62459 C160.928752,2473.11832 160.561878,2472.96981 160.412411,2472.61204 C159.603931,2471.86275 158.578045,2471.32272 158.217966,2470.10766 C157.103758,2469.72289 156.546654,2468.76435 155.357713,2468.43358 C155.412065,2468.00156 154.936488,2467.81255 154.685112,2467.58979 C154.40656,2467.34002 154.087244,2467.15776 153.849456,2466.92825 C153.312734,2466.43548 153.020594,2465.8347 152.490666,2465.41618 C152.361581,2465.30817 152.123793,2465.33517 151.987914,2465.25417 C151.872417,2465.17991 151.763714,2464.99091 151.65501,2464.91665 C151.532719,2464.8289 151.288137,2464.84915 151.152258,2464.74789 C151.070731,2464.69389 151.050349,2464.46438 150.975616,2464.42388 C150.500039,2464.09986 149.868202,2463.77584 149.29751,2463.58008 C148.672467,2463.71509 148.271624,2464.21462 147.782459,2464.57913 C147.632992,2464.69389 147.571847,2464.80865 147.442762,2464.91665 C147.381616,2464.9774 147.16421,2464.86265 147.103064,2464.91665 C147.055507,2464.97065 147.16421,2465.20692 147.103064,2465.25417 C146.973979,2465.35542 146.742985,2465.34192 146.600312,2465.41618 C146.511991,2465.47018 146.627488,2465.57818 146.437257,2465.58494 C146.226645,2465.59169 146.13153,2465.8347 145.927711,2466.09796 C145.880153,2466.13846 145.615189,2466.20597 145.588014,2466.25997 C145.554044,2466.33422 145.642365,2466.52323 145.588014,2466.59749 C145.472516,2466.73249 145.193964,2466.7865 145.078467,2466.92825 C145.010528,2467.02276 145.017322,2467.33327 144.908619,2467.42778 C144.786328,2467.55603 144.568921,2467.47503 144.41266,2467.58979 C144.310751,2467.67079 144.100139,2468.24457 143.733265,2468.26482 C143.400362,2468.28507 143.556623,2468.58884 143.393568,2468.7711 C143.203337,2468.98036 142.951961,2468.9196 142.727761,2469.26387 C142.428827,2469.72964 141.783402,2470.14142 141.205916,2470.60719 C141.056449,2470.73545 141.015686,2470.99196 140.873013,2471.11346 C140.73034,2471.22822 140.499345,2471.17422 140.363466,2471.27547 C140.234381,2471.39023 140.173236,2471.68724 140.030563,2471.775 C139.867508,2471.88975 139.650102,2471.8155 139.521017,2471.95051 C139.33758,2472.14627 139.174525,2472.54454 139.018264,2472.78755 C138.828034,2473.09131 138.610627,2473.32758 138.515512,2473.62459 C138.148639,2473.44908 137.836117,2473.84735 137.49642,2473.79335 C137.489626,2473.7866 137.455656,2473.63134 137.340159,2473.62459 C137.319777,2473.62459 136.891758,2473.49633 136.830613,2473.45583 C136.65397,2473.35458 136.497709,2473.07781 136.321066,2472.95631 C136.239539,2472.89555 136.056102,2472.8618 135.988163,2472.78755 C135.933811,2472.7268 135.872666,2472.49053 135.818314,2472.45003 C135.485411,2472.24752 135.050598,2472.36228 134.975864,2471.775 C134.602197,2471.71424 134.187766,2471.53199 133.793717,2471.27547 C133.705396,2471.21472 133.820893,2471.12697 133.630662,2471.11346 C133.467608,2471.10671 132.910504,2470.62744 132.618364,2470.44518 C132.523249,2470.38443 132.638746,2470.28992 132.448515,2470.27642 C132.197139,2470.26292 131.572096,2469.54739 131.266368,2469.26387 C131.150871,2469.16262 130.777204,2469.14912 130.756822,2468.9331 C130.750028,2468.73059 130.383155,2468.60234 130.260863,2468.26482 C129.696966,2468.26482 129.683378,2467.72479 129.078716,2467.77205 C129.099098,2467.46153 128.854516,2467.11051 128.575964,2467.09701 C128.487643,2467.09701 128.147945,2466.61099 127.896569,2466.42198 C127.522902,2466.13846 126.911446,2465.78745 126.388312,2465.41618 C125.85159,2465.51068 125.545863,2465.8212 125.36922,2466.25997 C124.513182,2466.32747 124.085163,2467.13076 123.514472,2467.58979 C123.385387,2467.71129 123.140804,2467.66404 123.011719,2467.77205 C122.352706,2468.27832 121.829572,2468.9331 120.993916,2469.26387 C120.762922,2469.39213 120.613455,2469.74315 120.314521,2469.94566 C120.219406,2470.00641 119.567187,2470.08741 119.478866,2470.27642 C119.38375,2470.47218 119.370162,2470.70844 119.139168,2470.94471 C118.948938,2471.13372 118.38504,2470.99196 118.466567,2471.61299 C117.583354,2471.45773 117.57656,2472.18677 116.951516,2472.28802 C116.747698,2472.23402 116.869989,2472.55804 116.774874,2472.61204 C116.625407,2472.7268 116.170212,2472.68629 116.109067,2473.12507 C115.694636,2473.05081 115.742193,2473.42883 115.266617,2473.29382 C115.069592,2473.52334 115.042417,2473.56384 114.757071,2473.79335 C114.641574,2473.88785 114.417373,2474.11062 114.247525,2474.12412 C113.948591,2474.14437 112.739268,2475.83195 112.236515,2474.46838 C111.978345,2474.38738 112.256897,2474.30638 112.236515,2474.12412 C112.20934,2473.94861 111.856054,2472.95631 112.066667,2472.28802 C112.080255,2472.22727 112.236515,2472.07201 112.236515,2472.11251 C112.236515,2471.84925 112.039491,2471.82225 112.066667,2471.61299 C112.087049,2471.31597 112.222928,2471.25522 112.236515,2470.94471 C112.236515,2470.61394 112.046285,2470.25617 112.066667,2469.94566 C112.066667,2469.97266 112.229722,2469.86465 112.236515,2469.77015 C112.236515,2469.54739 112.222928,2469.32462 112.236515,2469.10186 C112.72568,2468.59559 113.418663,2468.71709 114.077676,2468.43358 C114.159203,2468.39983 114.077676,2468.27832 114.247525,2468.26482 C114.247525,2468.26482 114.716307,2468.12981 114.757071,2468.09606 C114.82501,2468.04206 114.85898,2467.8058 114.926919,2467.77205 C115.144326,2467.63704 115.551963,2467.55603 115.769369,2467.42778 C116.013951,2467.27252 116.1838,2467.21852 116.265328,2466.92825 L116.951516,2466.92825 C117.209687,2466.773 117.270832,2466.42873 117.447475,2466.25997 C117.583354,2466.14521 117.841524,2466.19922 117.957021,2466.09796 C118.154045,2465.9157 118.255955,2465.78069 118.636416,2465.58494 C118.942144,2465.42968 119.438102,2465.23392 119.64192,2464.74789 C120.48437,2464.69389 120.939565,2464.25512 121.156971,2463.58008 C121.754839,2463.66784 121.578196,2462.9928 122.16927,2463.07381 C122.400264,2462.59453 122.828283,2462.37177 123.351417,2462.07476 C123.514472,2461.9735 123.562029,2461.825 123.68432,2461.73724 C123.969666,2461.53473 124.316158,2461.41997 124.52677,2461.23097 C125.049904,2460.78544 125.267311,2460.20491 125.878766,2459.90115 C125.770063,2459.28687 125.994263,2459.0101 126.218464,2458.72659 L127.896569,2458.72659 C127.882981,2459.0236 128.066418,2459.19911 128.236267,2459.39487 C128.399321,2459.59063 128.711843,2459.71214 128.915661,2459.90115 C129.024365,2460.00915 128.963219,2460.27917 129.078716,2460.40067 C129.133068,2460.44793 129.370856,2460.33992 129.418414,2460.40067 C129.622232,2460.65044 129.989106,2461.13646 130.423918,2461.39972 C131.042168,2461.78449 131.843854,2462.71604 132.618364,2463.24932 C132.754243,2463.33707 132.93768,2463.56658 133.12791,2463.58008 C133.284171,2463.58008 133.372492,2463.9716 133.467608,2464.08636 C133.916008,2464.07286 134.235324,2464.45763 134.629373,2464.74789 C134.792428,2464.86265 134.982658,2465.13941 135.145713,2465.25417 C135.200065,2465.29467 135.437853,2465.20017 135.478617,2465.25417 C135.512586,2465.30142 135.600908,2465.55793 135.648465,2465.58494 C135.872666,2465.72669 136.225951,2465.61869 136.490915,2465.76044 C136.65397,2465.8347 136.65397,2466.23972 137.000461,2466.25997 C137.380923,2466.28022 137.292601,2466.44898 137.49642,2466.59749 C137.564359,2466.63124 137.795353,2466.53673 137.836117,2466.59749 C137.992378,2466.773 138.060318,2466.69874 138.345663,2466.75949 C138.678567,2466.827 138.651391,2466.95525 139.188113,2466.75949 C139.30361,2466.71899 139.548192,2466.67174 139.697659,2466.59749 C139.996593,2466.42198 140.098502,2466.18572 140.363466,2465.92245 C140.485757,2465.81445 140.587667,2465.69969 140.709958,2465.58494 C140.893394,2465.39593 141.17874,2465.26767 141.53882,2465.08541 C141.871723,2465.05841 141.620347,2464.60614 142.048366,2464.57913 C142.238596,2464.57238 142.265772,2464.17411 142.388063,2464.08636 C142.442415,2464.03236 142.680203,2464.14036 142.727761,2464.08636 C142.754937,2464.04586 142.700585,2463.93785 142.727761,2463.9176 C143.115016,2463.55308 143.515859,2463.07381 144.072963,2462.9118 C144.052581,2462.60803 144.276781,2462.55403 144.242812,2462.23677 C144.650449,2462.18276 144.799915,2461.81824 145.078467,2461.56848 C145.357019,2461.32547 145.642365,2461.14321 145.927711,2460.89345 C146.06359,2460.77869 146.124736,2460.49518 146.260615,2460.40067 C146.423669,2460.28592 146.627488,2460.34667 146.770161,2460.23191 C146.912834,2460.12391 146.967185,2459.82689 147.103064,2459.72564 C147.272913,2459.61763 147.463144,2459.67164 147.605817,2459.56363 C147.877575,2459.36112 148.020247,2459.11811 148.285212,2458.89535 C148.543382,2458.67259 148.896667,2458.61183 149.120867,2458.38907 C149.55568,2457.9773 149.77988,2457.36977 150.309808,2457.0525 C151.335695,2457.0255 151.444398,2457.9368 152.327611,2458.05155 C152.354787,2458.58483 152.945861,2458.55108 153.000212,2459.06411 C154.195948,2459.21261 154.44053,2460.30617 155.527562,2460.56268 L155.527562,2461.06221 C156.118635,2461.31197 156.546654,2461.61573 157.049406,2462.07476 C157.226049,2462.23677 157.654068,2462.39877 157.545365,2462.74304 C158.129644,2462.77679 158.469342,2463.25607 158.897361,2463.58008 C159.087591,2463.72859 159.155531,2463.88385 159.400113,2464.08636 C159.569962,2464.21462 159.936835,2464.27537 160.079508,2464.42388 C160.188211,2464.51838 160.133859,2464.8154 160.249357,2464.91665 C160.378442,2465.03816 160.595848,2464.97065 160.758903,2465.08541 C161.268449,2465.47693 161.859523,2466.63124 162.769912,2466.92825 C163.07564,2466.935 163.109609,2466.72574 163.279458,2466.59749 C163.551216,2466.38148 163.938471,2466.21272 164.29855,2465.92245 C164.339314,2465.88195 164.407254,2465.61194 164.461605,2465.58494 C164.529545,2465.55793 164.746951,2465.63894 164.794509,2465.58494 C164.991533,2465.38918 165.10703,2465.03141 165.297261,2464.74789 C165.371995,2464.63989 165.575813,2464.51838 165.636959,2464.42388 C165.704898,2464.32262 165.718486,2464.01211 165.800013,2463.9176 C165.854365,2463.85685 166.098947,2463.9716 166.139711,2463.9176 C166.255208,2463.77584 166.139711,2463.48558 166.479408,2463.58008 C166.737578,2463.45183 166.676433,2463.09406 166.819106,2462.9118 C167.022924,2462.64179 167.403385,2462.52028 167.661555,2462.23677 C167.797434,2462.08826 167.865374,2461.906 168.001253,2461.73724 C168.239041,2461.41997 168.626296,2460.9812 169.006757,2460.56268 C169.224164,2460.31967 169.421188,2459.84715 169.849207,2459.90115 C169.672565,2459.29362 170.385929,2459.07086 170.691657,2458.72659 C170.956621,2458.42957 170.915857,2457.9638 171.371052,2457.88955 C171.405022,2457.37652 171.731131,2457.13351 171.873804,2456.72174 C172.064035,2456.74874 172.172738,2456.67449 172.206708,2456.54623 C173.055951,2456.64073 173.03557,2456.54623 173.721758,2456.72174 C173.585879,2457.18751 173.959547,2457.14701 173.898401,2457.55203 C174.170159,2458.17981 174.937875,2458.29457 175.080548,2459.06411 C175.250397,2459.17211 175.590095,2459.08436 175.746355,2459.22611 C175.848265,2459.32062 175.821089,2459.63113 175.916204,2459.72564 C176.215138,2460.04966 177.064382,2460.46818 177.091557,2461.23097 C177.723395,2461.05546 177.573928,2461.64949 178.103856,2461.56848 C178.165001,2462.10176 178.647372,2462.18276 178.9531,2462.57428 C179.021039,2462.66879 179.041421,2462.82405 179.116154,2462.9118 C179.163712,2462.9658 179.394706,2462.85105 179.449058,2462.9118 C179.516997,2462.9658 179.394706,2463.18181 179.449058,2463.24932 C179.530585,2463.33032 180.108071,2463.55983 180.128453,2463.9176 C180.142041,2464.14036 180.481738,2464.26862 180.801054,2464.42388 C181.140751,2465.30817 182.023965,2465.65919 182.485953,2466.42198 C182.778093,2466.27347 183.009087,2466.05071 183.158554,2465.76044 C184.075737,2465.98996 183.858331,2465.11916 184.680399,2465.25417 C184.863836,2465.15291 184.891011,2464.91665 185.006509,2464.74789 C185.122006,2464.60614 185.441321,2464.59263 185.353,2464.24837 C185.774225,2464.27537 185.862546,2463.9851 186.19545,2463.9176 C186.406062,2463.8501 186.38568,2463.53958 186.528353,2463.41133 C186.596293,2463.35732 186.793317,2463.45183 186.861257,2463.41133 C187.065075,2463.28982 187.017518,2462.9253 187.370803,2462.9118 C187.730882,2462.89155 187.703707,2462.74304 187.7105,2462.41227 C188.688829,2462.48653 188.885854,2461.79124 189.232345,2461.23097 C190.339759,2461.00145 190.740602,2460.06316 191.759694,2459.72564 C191.834428,2459.48263 192.004277,2459.31387 192.092598,2459.06411 C192.683672,2459.15186 192.500235,2458.47008 193.104896,2458.55783 C193.329097,2458.39582 193.4378,2458.11231 193.607649,2457.88955 L194.103607,2457.88955 C194.497656,2457.76129 194.613153,2457.38327 194.783002,2457.0525 C195.754537,2457.012 195.985531,2456.22896 196.630956,2455.87794 C197.636461,2455.61468 197.507376,2456.47197 198.32265,2456.38422 C198.431353,2456.61373 198.363413,2456.82974 198.492498,2457.0525 C198.587614,2457.22126 199.314566,2457.71404 199.334948,2458.05155 C199.341742,2458.11231 199.620294,2458.32832 199.674646,2458.38907 C199.783349,2458.51733 200.089076,2459.13161 200.517095,2459.06411 C200.666562,2459.73914 201.033435,2460.21166 201.692449,2460.40067 C201.502218,2461.14321 202.596044,2461.46048 203.044444,2461.89925 C203.10559,2461.96 203.146354,2462.20301 203.207499,2462.23677 C203.39773,2462.35827 203.696664,2462.26377 203.8801,2462.41227 C204.151858,2462.61479 204.342089,2463.0063 204.552701,2463.24932 C204.797283,2463.34382 205.007896,2463.28982 205.232096,2463.41133 C205.30683,2463.45183 205.347593,2463.72184 205.395151,2463.74884 C205.483472,2463.78259 205.666909,2463.69484 205.734848,2463.74884 C205.795994,2463.78934 205.680497,2464.03911 205.734848,2464.08636 C206.060958,2464.34962 206.88982,2464.84915 207.249899,2465.25417 C207.528451,2465.55793 207.609979,2466.00346 207.9225,2466.25997 C207.949676,2466.57048 208.493192,2466.36122 208.595101,2466.59749 C208.663041,2467.13751 209.09106,2467.32652 209.274496,2467.77205 C209.790836,2467.72479 210.001449,2467.19827 210.456643,2466.92825 C210.721607,2466.773 210.843899,2466.60424 211.12245,2466.25997 C211.231154,2466.13846 211.380621,2466.03046 211.462148,2465.92245 C211.77467,2465.52418 211.77467,2464.8829 212.644295,2464.91665 C212.406507,2464.30912 212.970405,2464.48463 213.316896,2464.24837 C213.473157,2464.14036 213.35766,2463.87035 213.486745,2463.74884 C213.588654,2463.63409 213.880794,2463.69484 213.989497,2463.58008 C214.349576,2463.20206 214.485455,2462.74304 215.001796,2462.41227 C215.096911,2462.35152 214.97462,2462.24352 215.171644,2462.23677 C215.545312,2462.21651 215.334699,2461.75074 215.674397,2461.73724 C216.190737,2461.71024 216.394555,2460.52218 217.196241,2460.73819 C217.495175,2460.57618 217.338914,2460.29942 217.529145,2460.06316 C217.637848,2459.9214 217.909606,2460.0159 218.031897,2459.90115 C218.1406,2459.78639 218.079455,2459.49613 218.201746,2459.39487 C218.262891,2459.34762 218.50068,2459.44888 218.541443,2459.39487 C218.595795,2459.34087 218.650146,2459.09111 218.704498,2459.06411 C219.044196,2458.82784 219.506184,2458.59833 219.886645,2458.22706 C220.138021,2457.98405 220.37581,2457.66003 220.56604,2457.38327 L221.061999,2457.38327 C221.265817,2457.17401 221.014441,2457.18076 221.231847,2456.88375 C221.347344,2456.73524 221.884066,2456.79599 221.741394,2456.38422 C222.611019,2456.18171 222.943923,2455.45267 223.76599,2455.20966 C223.759197,2455.45267 224.112482,2455.28391 224.268743,2455.38517 C224.411416,2455.45942 224.853022,2455.97245 225.111192,2456.21546 C225.478066,2456.55973 225.74303,2457.07276 226.123491,2457.38327 C226.177843,2457.43052 226.408837,2457.32927 226.463188,2457.38327 C226.503952,2457.43727 226.578686,2457.68029 226.626243,2457.71404 C226.687389,2457.76129 226.911589,2457.66679 226.965941,2457.71404 C227.020292,2457.79504 227.06785,2458.0043 227.135789,2458.05155 C227.393959,2458.26082 227.985033,2458.38907 227.971445,2458.89535 C228.331525,2458.9831 228.68481,2459.17886 228.983744,2459.39487 C229.228326,2459.56363 229.438938,2459.9079 229.663139,2460.06316 C229.71749,2460.11041 229.948485,2460.0024 230.002836,2460.06316 C230.111539,2460.20491 230.261006,2460.55593 230.505588,2460.73819 C230.648261,2460.83945 230.865668,2460.80569 231.008341,2460.89345 C231.130632,2460.97445 231.239335,2461.15671 231.348038,2461.23097 C231.517887,2461.35247 231.674148,2461.44023 231.843996,2461.56848 C231.9527,2461.64274 232.095373,2461.85875 232.190488,2461.89925 C232.482628,2462.07476 232.883471,2462.06801 233.195992,2462.23677 C233.284314,2462.29077 233.168817,2462.39877 233.372635,2462.41227 C233.440575,2462.41227 233.617217,2462.52703 233.705539,2462.57428 C233.990884,2462.70929 234.201497,2462.86455 234.541194,2463.07381 C234.63631,2463.13456 234.5344,2463.20206 234.717837,2463.24932 C235.11868,2463.34382 235.288529,2463.64084 235.723342,2463.9176 C236.171742,2464.19436 236.491058,2464.24837 236.905489,2464.57913 C237.156865,2464.78839 237.550914,2465.15291 238.257485,2465.08541 C238.712679,2465.20017 238.801001,2464.63989 239.093141,2464.42388 C239.16108,2464.37662 239.38528,2464.46438 239.426044,2464.42388 C239.45322,2464.39012 239.405662,2464.26187 239.426044,2464.24837 C239.48719,2464.20787 239.724978,2464.30237 239.765742,2464.24837 C239.786123,2464.23487 239.74536,2464.09986 239.765742,2464.08636 C239.833681,2464.05261 240.064675,2464.13361 240.112233,2464.08636 C240.125821,2464.05936 240.078263,2463.92435 240.112233,2463.9176 C240.166585,2463.88385 240.397579,2463.9581 240.445136,2463.9176 C240.635367,2463.67459 240.893537,2463.58008 241.117737,2463.24932 C241.178883,2463.15481 241.273998,2463.27632 241.287586,2463.07381 C241.301174,2462.8443 241.803926,2462.82405 241.790338,2462.41227 C242.000951,2462.36502 242.259121,2462.46628 242.456146,2462.41227 C242.782255,2462.31777 242.856989,2461.68324 242.972486,2462.07476 C243.223862,2461.99375 242.904546,2461.85875 242.972486,2461.56848 C243.42768,2461.46723 243.386917,2460.86645 243.984784,2460.89345 C244.256542,2460.21166 245.031052,2459.9484 245.499835,2459.39487 C245.567774,2459.30037 245.656096,2459.42187 245.66289,2459.22611 C245.676478,2459.0101 246.138466,2458.92235 246.335491,2458.72659 C246.464576,2458.58483 246.389842,2458.38232 246.505339,2458.22706 C246.580073,2458.13256 246.777097,2458.13931 246.845037,2458.05155 C247.205116,2457.63978 247.463286,2457.23476 248.197033,2457.0525 C248.387263,2456.80274 248.767725,2456.44497 249.032689,2456.0467 C249.134598,2455.95895 249.250095,2455.95895 249.365592,2455.87794 C249.453914,2455.83069 249.501471,2455.73619 249.535441,2455.70919 C249.644144,2455.64843 249.922696,2455.63493 250.051781,2455.54718 C250.391479,2455.27716 250.425448,2454.64263 251.233928,2454.70339 C251.587214,2454.45362 251.729887,2453.9811 252.395694,2454.0351 C252.952798,2453.83259 252.531573,2454.58188 253.075089,2454.36587 C253.156616,2454.68988 253.441962,2454.79789 253.414786,2455.20966 C254.060211,2455.68218 254.827928,2456.03995 255.10648,2456.88375 C255.317092,2456.86349 255.602438,2456.84999 255.602438,2457.0525 C255.602438,2457.30227 255.955723,2457.11326 256.111984,2457.22126 C256.261451,2457.31577 256.309009,2457.62628 256.444888,2457.71404 C256.607942,2457.82879 256.811761,2457.76804 256.94764,2457.88955 C257.103901,2458.0043 257.151458,2458.25406 257.287337,2458.38907 C257.348483,2458.44307 257.572683,2458.32832 257.627035,2458.38907 C257.735738,2458.49708 257.654211,2459.11136 258.30643,2458.89535 C258.360781,2459.09786 258.517042,2459.25312 258.639333,2459.39487 C258.673303,2459.43537 258.958649,2459.51638 258.979031,2459.56363 C259.006207,2459.63113 258.924679,2459.84715 258.979031,2459.90115 C259.026588,2459.9484 259.264377,2459.84039 259.311934,2459.90115 C259.461401,2460.07666 259.617662,2460.26567 259.814687,2460.56268 C260.290263,2460.43442 260.256293,2460.79894 260.657136,2460.73819 C260.840573,2460.76519 260.718282,2461.14321 260.826985,2461.23097 C260.881337,2461.28497 261.119125,2461.17696 261.166682,2461.23097 C261.207446,2461.28497 261.28218,2461.54148 261.336531,2461.56848 C261.50638,2461.67649 261.689817,2461.61573 261.839283,2461.73724 C262.09066,2461.933 262.28089,2462.23677 262.518678,2462.41227 C263.035019,2462.77679 263.578535,2463.18181 264.196784,2463.41133 C264.332663,2463.56658 264.373427,2463.78934 264.366633,2464.08636 C264.556863,2464.14711 264.862591,2463.99185 265.046028,2464.08636 C265.093585,2464.09986 264.99847,2464.38337 265.046028,2464.42388 C265.243052,2464.62639 265.51481,2464.42388 265.888477,2464.57913 C265.983593,2464.62639 266.139853,2464.8829 266.221381,2464.91665 C266.418405,2464.99766 266.737721,2464.8154 266.724133,2465.08541 C267.084212,2465.03816 267.410322,2464.74114 267.736432,2464.57913 C267.933456,2464.48463 268.069335,2464.51838 268.239184,2464.42388 C268.354681,2464.35637 268.504148,2464.11336 268.578881,2464.08636 C268.71476,2464.01886 268.952549,2464.14711 269.081634,2464.08636 C269.326216,2463.9581 269.754235,2463.79609 269.754235,2463.41133 C270.33172,2463.67459 270.481187,2462.69579 270.766533,2463.24932 C271.133406,2463.20882 271.079055,2462.77679 271.276079,2462.57428 C271.405164,2462.43253 271.935092,2462.45278 271.778832,2462.07476 C272.009826,2461.9735 272.227232,2462.03426 272.458227,2461.89925 C272.519372,2461.8655 272.560136,2461.60223 272.628075,2461.56848 C272.716397,2461.53473 272.879451,2461.62248 272.967773,2461.56848 C273.090064,2461.48073 273.158003,2461.33897 273.300676,2461.23097 C273.388998,2461.17021 273.552052,2461.14321 273.626786,2461.06221 C273.82381,2460.89345 274.014041,2460.61668 274.143126,2460.40067 C274.44206,2460.42092 274.489617,2460.19141 274.808933,2460.23191 C275.25054,2459.73914 275.549474,2459.16536 276.160929,2458.72659 C276.215281,2458.38907 276.126959,2458.20006 275.828025,2458.22706 C275.889171,2457.84904 276.656887,2458.15956 276.996585,2458.05155 C277.38384,2457.9368 277.506131,2457.54528 277.67598,2457.22126 C278.19232,2457.34277 278.002089,2456.76224 278.518429,2456.88375 C278.735836,2456.0332 279.782104,2456.01295 280.040274,2455.20966 C280.61776,2455.34467 280.678905,2454.9599 281.215627,2455.04765 C281.276773,2455.47967 281.71838,2455.54718 281.71838,2456.0467 C281.990138,2456.40447 282.282278,2456.72849 282.560829,2457.0525 C282.852969,2457.38327 283.097551,2457.79504 283.410073,2458.05155 C283.471219,2458.10556 283.702213,2457.99755 283.742977,2458.05155 C283.78374,2458.09881 283.865268,2458.36207 283.912825,2458.38907 C284.116644,2458.50383 284.388402,2458.42282 284.585426,2458.55783 C284.816421,2458.71984 285.244439,2459.25312 285.597725,2459.56363 C285.767574,2459.70539 285.930628,2459.91465 286.100477,2460.06316 C286.358647,2460.29942 286.881781,2460.48168 286.942927,2461.06221 C287.683467,2461.28497 288.002783,2461.906 288.457978,2462.41227 C289.062639,2462.36502 289.083021,2462.9118 289.640125,2462.9118 C289.80318,2463.25607 289.986616,2463.57333 290.142877,2463.9176 C291.141588,2464.09986 291.61037,2464.74114 292.507172,2464.24837 C292.588699,2464.20112 292.479996,2464.09986 292.670226,2464.08636 C292.819693,2464.07286 293.050687,2463.8231 293.172979,2463.74884 C293.390385,2463.62059 293.512676,2463.39782 293.852374,2463.24932 C293.913519,2463.21557 294.144513,2463.28982 294.185277,2463.24932 C294.375508,2463.01306 294.606502,2462.38527 295.367424,2462.57428 C295.258721,2462.41227 294.980169,2462.40552 295.034521,2462.07476 C295.693534,2462.12201 295.544067,2461.35247 296.216668,2461.39972 C296.372929,2461.05546 296.549571,2460.74494 296.71942,2460.40067 C296.984384,2460.35342 297.004766,2460.55593 297.222172,2460.56268 C297.446373,2460.51543 297.358051,2460.15091 297.392021,2459.90115 C297.704543,2459.76614 297.962713,2459.60413 298.227677,2459.39487 C298.383938,2459.27337 298.424702,2458.90885 298.737223,2458.89535 C298.941042,2458.88185 299.14486,2458.48358 299.239975,2458.22706 C299.688376,2458.22706 300.204716,2458.28107 300.422123,2458.05155 C300.401741,2457.85579 300.116395,2457.91655 299.91937,2457.88955 C299.946546,2457.64653 300.422123,2457.82879 300.422123,2457.55203 C300.578384,2457.43052 300.680293,2457.24826 300.76182,2457.0525 C301.284954,2457.17401 301.53633,2456.62723 301.930379,2456.38422 C302.18855,2456.22896 302.351604,2456.0602 302.609774,2455.70919 C302.718478,2455.58093 302.861151,2455.48643 302.949472,2455.38517 C303.160084,2455.10166 303.2552,2454.76414 303.459018,2454.54138 C303.554133,2454.43337 303.914213,2454.54138 303.791922,2454.20386 L304.974069,2454.20386 C305.103154,2454.35237 305.157505,2454.58188 305.137124,2454.87214 C305.347736,2454.9329 305.503997,2455.08815 305.639876,2455.20966 C305.687434,2455.25016 305.768961,2455.52018 305.816519,2455.54718 C305.877664,2455.57418 306.101864,2455.49318 306.149422,2455.54718 C306.203774,2455.59443 306.095071,2455.83069 306.149422,2455.87794 C306.298889,2455.99945 306.631793,2456.14121 306.828817,2456.38422 C306.869581,2456.43822 306.767672,2456.67449 306.828817,2456.72174 C306.862787,2456.75549 307.141339,2456.84324 307.161721,2456.88375 C307.222866,2457.012 307.080193,2457.27527 307.161721,2457.38327 C307.317981,2457.60603 307.535388,2457.97055 307.841116,2458.22706 C307.963407,2458.32832 308.207989,2458.28782 308.337074,2458.38907 C308.540892,2458.53758 308.731123,2458.80759 308.676771,2459.39487 C309.315403,2459.25987 309.199905,2459.88765 309.68907,2459.90115 C309.716246,2460.37367 310.252968,2460.55593 310.53152,2460.89345 C310.592665,2460.9677 310.477168,2461.16346 310.53152,2461.23097 C310.905187,2461.72374 311.373969,2462.29752 311.869928,2462.74304 C312.066952,2462.90505 312.243595,2463.10756 312.549323,2463.07381 L312.549323,2463.58008 C313.086045,2463.66109 313.14719,2464.21462 313.73147,2464.24837 L313.73147,2464.74789 C313.982846,2465.13941 314.268192,2464.42388 314.241016,2465.08541 C314.274986,2465.29467 314.573919,2465.25417 314.573919,2465.08541 C314.940793,2465.27442 315.131023,2465.64569 315.586218,2465.76044 C315.871564,2465.8212 315.905534,2465.61869 315.919121,2465.41618 C316.333552,2465.49043 316.285995,2465.11241 316.761571,2465.25417 C317.074093,2465.22717 316.870274,2464.68714 317.101269,2464.57913 C317.345851,2464.49138 317.5157,2464.32262 317.610815,2464.08636 L318.276622,2464.08636 C318.657083,2463.9851 318.072803,2463.8231 318.453265,2463.58008 C318.962811,2463.70834 318.77258,2463.11431 319.28892,2463.24932 C319.662588,2463.11431 319.710145,2462.66204 319.968315,2462.41227 C320.274043,2462.43253 320.321601,2462.20301 320.640916,2462.23677 C321.021378,2462.14901 320.430304,2461.98025 320.810765,2461.73724 C321.150463,2462.07476 321.605657,2461.68324 321.986118,2461.56848 C322.482077,2461.42673 321.598863,2461.31872 321.81627,2460.89345 C322.448107,2461.07571 322.291846,2460.48168 322.828568,2460.56268 C323.168266,2460.26567 323.215823,2459.81339 323.501169,2459.56363 C323.752545,2459.34087 324.085449,2459.68514 324.010715,2459.22611 C324.43194,2459.20586 324.533849,2458.90885 324.846371,2459.22611 C324.866753,2458.92235 324.642553,2458.86835 324.683316,2458.55783 C324.873547,2458.59833 324.914311,2458.26082 325.023014,2458.22706 C325.138511,2458.17306 325.410269,2458.29457 325.525766,2458.22706 C325.8247,2458.01105 326.08287,2457.49128 326.531271,2457.22126 C326.918526,2456.985 327.523187,2456.24921 328.222964,2456.0467 C328.195788,2456.24246 328.256934,2456.33697 328.392813,2456.38422 C328.630601,2456.30322 328.372431,2456.23571 328.392813,2456.0467 L328.392813,2455.54718 C328.773274,2455.42567 329.085796,2455.09491 329.398317,2454.87214 C329.500227,2454.81139 329.364348,2454.71689 329.568166,2454.70339 C329.731221,2454.69664 330.145652,2454.49412 330.240767,2454.20386 C330.356264,2454.28486 330.437792,2454.31187 330.580465,2454.36587 C330.634816,2454.39287 330.879398,2454.32537 330.920162,2454.36587 C330.93375,2454.38612 330.892986,2454.53463 330.920162,2454.54138 C331.042453,2454.58863 331.422914,2454.59538 331.592763,2454.70339 C331.647115,2454.73714 331.538411,2455.0004 331.592763,2455.04765 C331.728642,2455.15566 331.959636,2455.10841 332.102309,2455.20966 C332.190631,2455.28391 332.068339,2455.37167 332.265364,2455.37842 C332.421625,2455.38517 332.557504,2455.57418 332.598268,2455.70919 C333.35919,2455.57418 333.440717,2456.10071 333.94347,2456.21546 C334.004615,2456.49898 333.814384,2456.53273 333.603772,2456.54623 C333.630948,2456.958 334.181258,2456.58673 334.283167,2456.54623 C334.432634,2456.67449 334.663628,2456.72849 334.962562,2456.72174 C334.887828,2457.066 335.071265,2457.15376 335.132411,2457.38327 C335.288672,2457.38327 335.261496,2457.18076 335.302259,2457.0525 C335.621575,2457.39002 336.294176,2457.39677 336.307764,2458.05155 C336.572728,2457.79504 337.07548,2458.13931 337.14342,2458.55783 C337.62579,2458.42282 337.585026,2458.79409 337.992663,2458.72659 C338.373125,2459.11811 338.393506,2459.90115 339.331071,2459.72564 C339.589242,2460.23867 339.283514,2460.38042 339.507714,2460.73819 C339.677563,2460.62343 339.684357,2460.34667 340.010466,2460.40067 C340.397722,2460.29942 340.255049,2460.72469 340.513219,2460.73819 C340.764595,2460.75169 340.886886,2461.04871 341.192614,2461.06221 C341.416814,2461.07571 341.253759,2461.29172 341.362462,2461.39972 C341.505135,2461.54148 341.838039,2461.48748 342.041857,2461.56848 C342.238882,2461.79124 342.103003,2461.8385 342.041857,2462.07476 C342.551404,2462.37852 342.789192,2461.9195 343.217211,2462.23677 C342.884307,2462.68904 343.550114,2463.01306 343.550114,2462.9118 C343.563702,2463.12781 343.203623,2463.17506 343.217211,2463.41133 C343.679199,2463.8501 343.529732,2462.74304 344.392564,2463.07381 C344.657528,2463.8501 343.692787,2463.38432 343.726757,2463.9176 C343.828666,2464.08636 344.107218,2464.09311 344.05966,2464.42388 C344.202333,2464.34287 344.365388,2464.26862 344.392564,2464.08636 C344.773025,2463.9851 344.562413,2464.56563 344.90211,2464.57913 C345.071959,2464.59263 345.67662,2464.71414 345.74456,2465.08541 C345.873645,2464.94365 346.206548,2464.98415 346.254106,2464.74789 C346.736476,2464.8289 346.641361,2465.47018 347.089762,2465.58494 C348.333055,2465.71994 348.774661,2465.02466 349.284207,2464.42388 C350.024748,2464.66014 349.71902,2463.8501 350.289712,2463.9176 C350.466355,2463.91085 350.412003,2463.70834 350.459561,2463.58008 C350.507118,2463.46533 350.921549,2463.25607 350.962313,2462.9118 C351.641708,2463.07381 351.471859,2462.41227 352.14446,2462.57428 L352.14446,2461.89925 C352.681182,2461.75074 352.912177,2461.21746 353.319813,2460.89345 C353.394547,2460.83945 353.591571,2460.9542 353.659511,2460.89345 C354.08753,2460.58293 354.467991,2460.07666 355.011507,2459.90115 C355.357998,2459.84715 354.760131,2459.44212 355.351204,2459.39487 C355.806399,2458.8616 356.057775,2459.9214 356.526558,2459.39487 C356.934195,2459.22611 355.826781,2458.71984 356.356709,2458.38907 C356.77114,2458.37557 356.873049,2458.07856 357.192365,2458.38907 C357.335038,2458.24056 357.382595,2458.01105 357.369007,2457.71404 C357.586414,2457.61953 357.83779,2457.68029 358.041608,2457.55203 C358.238633,2457.42377 358.408482,2456.73524 358.721003,2457.22126 C359.033525,2457.19426 358.816119,2456.64748 359.053907,2456.54623 C359.339253,2456.55298 359.481926,2456.42472 359.556659,2456.21546 C360.174909,2456.32347 360.208878,2455.85094 360.738806,2455.87794 C360.895067,2455.80369 361.03774,2455.52018 361.241559,2455.38517 C361.309498,2455.33792 361.533698,2455.43242 361.581256,2455.37842 C361.771487,2455.14891 362.158742,2454.81139 362.926458,2454.87214 C362.933252,2455.0409 363.130277,2455.00715 363.266156,2455.04765 C363.381653,2455.98595 364.040666,2456.38422 364.441509,2457.0525 C364.502654,2457.33602 364.312424,2457.36977 364.115399,2457.38327 C364.298836,2457.67354 364.461891,2457.36302 364.774412,2457.55203 C364.774412,2457.55203 365.052964,2457.94355 365.283959,2458.22706 C365.657626,2458.67259 366.031293,2459.07761 365.793505,2459.72564 C366.269081,2459.8674 366.228318,2459.48938 366.635955,2459.56363 C366.737864,2459.88765 366.737864,2460.41417 366.635955,2460.73819 C366.737864,2460.8732 367.417259,2461.25797 367.47161,2460.89345 C367.824896,2460.9542 367.804514,2461.35247 368.144211,2461.39972 C368.212151,2461.68324 368.02192,2461.71699 367.811308,2461.73724 C367.845278,2462.014 368.259708,2461.81824 368.483909,2461.89925 C368.626582,2461.96 368.653758,2462.36502 368.993455,2462.23677 C369.210861,2462.80379 369.598116,2463.20206 370.168808,2463.41133 C370.141632,2463.55308 370.005753,2463.58008 370.005753,2463.74884 C369.978578,2464.00536 370.386215,2463.8096 370.508506,2463.9176 C370.569651,2463.9581 370.454154,2464.20112 370.508506,2464.24837 C370.671561,2464.38337 370.719118,2464.42388 370.841409,2464.57913 C370.888967,2464.63989 371.160725,2464.70064 371.181107,2464.74789 C371.22187,2464.8289 371.126755,2465.01791 371.181107,2465.08541 C371.473247,2465.46343 371.901265,2465.66594 372.03035,2466.09796 C372.329284,2466.09796 373.001885,2466.54348 373.212498,2466.09796 C373.375552,2466.19922 373.382346,2466.46923 373.71525,2466.42198 C373.93945,2466.37472 373.844335,2466.01021 373.878305,2465.76044 C374.367469,2465.8212 374.476172,2465.28117 374.720754,2465.08541 C374.775106,2465.03816 375.012894,2465.13941 375.053658,2465.08541 C375.162361,2464.95715 375.325416,2464.57913 375.55641,2464.42388 C375.637938,2464.36312 375.81458,2464.44413 375.902902,2464.42388 C376.086338,2464.34962 376.065956,2463.9986 376.405654,2464.08636 C376.718176,2464.05936 376.507563,2463.51933 376.745351,2463.41133 C377.526656,2463.58008 377.302455,2462.73629 378.083759,2462.9118 C378.260402,2462.9118 378.212844,2462.69579 378.260402,2462.57428 C378.341929,2462.35827 378.586512,2462.37177 378.6001,2461.89925 C379.041706,2461.73724 379.163997,2461.24447 379.605604,2461.06221 C379.469725,2460.71794 379.816217,2460.47493 379.945302,2460.23191 C380.033623,2460.04291 380.020035,2459.48263 380.448054,2459.56363 L380.448054,2458.89535 C380.964394,2458.79409 381.324473,2458.53083 381.793256,2458.38907 C382.132953,2458.11231 382.581354,2457.94355 382.635706,2457.38327 C383.260749,2457.51153 383.525713,2456.86349 383.987702,2456.88375 C384.408926,2456.89725 384.504042,2457.22801 385,2457.38327 C385,2457.78154 384.70786,2457.8828 384.830151,2458.38907 C384.544805,2458.59833 384.334193,2458.50383 384.15755,2458.72659 C383.885792,2459.06411 384.082817,2459.50288 383.478155,2459.56363 C383.172428,2459.59063 383.376246,2460.13066 383.145252,2460.23191 C382.554178,2460.52893 382.098984,2460.9812 381.793256,2461.56848 C381.24974,2461.64274 381.202182,2462.20976 380.611109,2462.23677 C380.033623,2462.61479 379.918126,2463.43833 379.102852,2463.58008 C378.939797,2464.03911 378.593306,2464.29562 378.423457,2464.74789 C377.907117,2464.99091 377.458716,2465.36217 377.078255,2465.76044 C376.874436,2465.9697 376.786115,2466.23297 376.582297,2466.42198 C376.371684,2466.60424 376.120308,2466.59074 375.902902,2466.75949 C375.705877,2466.91475 375.59038,2467.11051 375.393355,2467.25902 C375.237095,2467.38728 375.060452,2467.64379 374.890603,2467.77205 C374.652815,2467.92055 374.448996,2467.96781 374.211208,2468.09606 C373.919068,2468.25132 373.694868,2468.47408 373.538607,2468.7711 C373.124176,2468.54833 373.008679,2469.43263 372.866006,2468.9331 C372.668982,2469.00736 372.675776,2469.30437 372.533103,2469.43938 C372.329284,2469.61489 371.711035,2469.43938 371.853708,2470.10766 C371.228664,2469.8174 371.174313,2470.7557 370.678354,2470.77595 C370.460948,2470.78945 370.460948,2471.04596 370.345451,2471.11346 C370.202778,2471.17422 369.96499,2471.04596 369.835905,2471.11346 C369.693232,2471.18097 369.67285,2471.55224 369.333152,2471.45098 C369.353534,2471.13372 368.993455,2471.24172 368.823606,2471.11346 C368.674139,2470.97846 368.708109,2470.45193 368.31406,2470.60719 C368.402381,2469.58114 367.634665,2469.39213 367.138707,2468.9331 C367.077561,2468.15006 367.437641,2467.98131 366.975652,2467.58979 C366.771833,2467.61679 366.826185,2467.9003 366.799009,2468.09606 C366.500076,2468.02856 366.493282,2467.7923 366.296257,2467.58979 C366.160378,2467.46153 366.106026,2467.23202 365.793505,2467.25902 C365.820681,2467.06326 365.759535,2466.962 365.616862,2466.92825 C365.623656,2466.59749 366.078851,2466.71224 365.963354,2466.25997 C365.392662,2465.94945 365.936178,2466.30047 365.616862,2466.59749 Z" id="Fill-1-Copy" fill="#5A3426"></path>
    </g>
</svg>